<svg xmlns="http://www.w3.org/2000/svg"  viewBox="0 0 48 48" width="500px" height="500px"><polygon fill="#fadb00" points="21.115,8 43.962,30 44,30 44,8"/><path fill="#f5bc00" d="M21,8v18.692c0.787-0.79,1.734-1.585,2.891-2.356l2.219,3.328 c-1.183,0.789-2.072,1.583-2.744,2.336h20.596L21.115,8H21z"/><path fill="#6c19ff" d="M21,26.692c-3.573,3.588-3.704,7.078-3.689,7.783c-0.01,1.538-1.265,2.787-2.806,2.787 c-1.355,0-2.805-0.736-2.805-2.805c0-1.935,1.065-3.12,1.225-3.287c0.516-0.463,3.057-2.915,3.183-6.41 c0.081-2.229-0.825-4.307-2.733-6.213l-4.625-4.375l-2.748,2.906l4.585,4.336c1.059,1.059,1.558,2.1,1.525,3.182 c-0.06,1.979-1.856,3.596-1.926,3.658C9.932,28.493,7.7,30.696,7.7,34.457c0,3.943,2.861,6.805,6.805,6.805 c3.753,0,6.806-3.053,6.803-6.903c-0.003-0.106-0.02-2.032,2.058-4.358H21V26.692z"/><path fill="#eb7900" d="M26.109,27.664l-2.219-3.328c-1.156,0.771-2.104,1.566-2.891,2.356V30h2.365 C24.038,29.247,24.926,28.453,26.109,27.664z"/></svg>