<svg xmlns="http://www.w3.org/2000/svg"  viewBox="0 0 48 48" width="500px" height="500px"><polygon fill="#3dd9eb" points="33,36 15,36 16,33 32,33"/><rect width="16.121" height="3" x="7.004" y="32.394" fill="#3dd9eb" transform="rotate(-70.822 15.064 33.893)"/><rect width="3" height="13.233" x="30.961" y="25.914" fill="#3dd9eb" transform="rotate(-19.178 32.465 32.534)"/><path fill="#f55376" d="M42,13c0,9.94-8.06,18-18,18S6,22.94,6,13H42z"/><path fill="#eb0000" d="M31.704,25.788l-2.833,0.986l1.109,3.188c0.955-0.337,1.877-0.739,2.75-1.225L31.704,25.788z"/><path fill="#eb0000" d="M16.296,25.788l2.833,0.986l-1.109,3.188c-0.955-0.337-1.877-0.739-2.75-1.225L16.296,25.788z"/><rect width="3" height="6" x="22" fill="#fa91ad"/><rect width="3" height="6" x="28" y="4" fill="#fa91ad"/><rect width="3" height="6" x="16" y="4" fill="#fa91ad"/><circle cx="34.5" cy="38.5" r="3.5" fill="#6c19ff"/><path fill="#2100c4" d="M32.074,35.985l1.144,3.287l2.833-0.986l-1.128-3.244C34.783,35.026,34.645,35,34.5,35	C33.556,35,32.704,35.378,32.074,35.985z"/></svg>