<svg xmlns="http://www.w3.org/2000/svg"  viewBox="0 0 48 48" width="500px" height="500px"><polygon fill="#f5bc00" points="43,31 35.4,31 30,4 26,4 31.4,31 16.6,31 22,4 18,4 12.6,31 5,31 5,35 11.8,35 10,44 14,44 15.8,35 22,35 22,41 26,41 26,35 32.2,35 34,44 38,44 36.2,35 43,35"/><rect width="32" height="22" x="8" y="10" fill="#3dd9eb"/><path fill="#7debf5" d="M40,24c0,0-1.433,1.067-3.2,1.067S33.6,24,33.6,24s-1.433,1.067-3.2,1.067 c-1.767,0-3.2-1.067-3.2-1.067s-1.433,1.067-3.2,1.067S20.8,24,20.8,24s-1.433,1.067-3.2,1.067S14.4,24,14.4,24 s-1.433,1.067-3.2,1.067S8,24,8,24v9h32V24z"/><circle cx="34.5" cy="15.5" r="2.5" fill="#7debf5"/><polygon fill="#eb7900" points="15.8,35 16.6,31 12.6,31 11.8,35"/><polygon fill="#eb7900" points="36.2,35 35.4,31 31.4,31 32.2,35"/><polygon fill="#eb7900" points="40,31 8,31 8,33 22,33 22,35 26,35 26,33 40,33"/></svg>