<svg xmlns="http://www.w3.org/2000/svg"  viewBox="0 0 48 48" width="500px" height="500px"><path fill="#ddbaff" d="M24,44L24,44c-8.216,0-15.137-6.14-16.116-14.297l-0.797-4.639C5.871,14.924,13.788,6,24,6h0 c10.212,0,18.129,8.924,16.912,19.063l-0.797,4.639C39.137,37.86,32.216,44,24,44z"/><path fill="#6c19ff" d="M41,21c-0.001-3.743-1.231-7.24-3.327-10.084C36.849,9.8,35.889,8.783,34.82,7.899 C31.895,5.474,28.136,4.003,24,4.003c-4.137,0-7.895,1.471-10.821,3.895c-0.553,0.458-1.082,0.951-1.577,1.485 c-2.919,3.12-4.669,7.326-4.6,11.882H7v3h0.998v-2.574c2.87-1.578,4.98-4.371,5.642-7.688h20.72 c0.662,3.317,2.772,6.11,5.642,7.688V24H41L41,21L41,21z"/><path fill="#ddbaff" d="M40,31H8c-1.657,0-3-1.343-3-3s1.343-3,3-3h32c1.657,0,3,1.343,3,3S41.657,31,40,31z"/><path fill="#2100c4" d="M37.673,13.913c-0.823-1.117-1.784-2.133-2.852-3.017C31.895,8.471,28.137,7,24,7 c-4.137,0-7.895,1.471-10.821,3.895c-0.553,0.458-1.082,0.951-1.577,1.485C8.494,15.704,6.71,20.26,7.039,25.158 c3.355-1.449,5.867-4.482,6.601-8.158h20.72c0.734,3.677,3.247,6.709,6.601,8.158C41.242,20.979,39.985,17.05,37.673,13.913z"/><path fill="#fff" d="M24,33L24,33c-2.209,0-4,1.791-4,4v0h8v0C28,34.791,26.209,33,24,33z"/><path fill="#fff" d="M18.444,28.622L18.444,28.622c-1.408,0.715-3.13,0.153-3.845-1.256l0,0l5.1-2.589l0,0 C20.415,26.186,19.853,27.907,18.444,28.622z"/><path fill="#fff" d="M29.518,28.66L29.518,28.66c1.422,0.722,3.16,0.154,3.882-1.268v0l-5.15-2.615v0 C27.528,26.2,28.096,27.938,29.518,28.66z"/><polygon fill="#f5bc00" points="45,9 39,9 39,0 28,13 34,13 34,22"/></svg>