<svg xmlns="http://www.w3.org/2000/svg"  viewBox="0 0 48 48" width="500px" height="500px"><path fill="#3ddab4" d="M39.576,23.98L23.98,39.576c-4.296,4.296-11.261,4.296-15.556,0l0,0 c-4.296-4.296-4.296-11.261,0-15.556L24.02,8.424c4.296-4.296,11.261-4.296,15.556,0l0,0 C43.872,12.72,43.872,19.685,39.576,23.98z"/><rect width="7" height="4" x="36.41" y="6.09" fill="#3ddab4" transform="rotate(-45.001 39.91 8.09)"/><rect width="7" height="4" x="4.59" y="37.91" fill="#3ddab4" transform="rotate(-45.001 8.09 39.91)"/><rect width="4" height="7" x="13.161" y="11.661" fill="#3ddab4" transform="rotate(-45.001 15.161 15.161)"/><rect width="4" height="7" x="30.839" y="29.339" fill="#3ddab4" transform="rotate(-45.001 32.839 32.84)"/><rect width="4" height="2" x="14.929" y="15.929" fill="#00b569" transform="rotate(-45.001 16.929 16.93)"/><rect width="4" height="2" x="29.071" y="30.071" fill="#00b569" transform="rotate(-45.001 31.07 31.072)"/><rect width="4" height="6.001" x="24.475" y="2.261" fill="#3ddab4" transform="rotate(-6.832 26.465 5.259)"/><rect width="4" height="6.001" x="40.738" y="18.525" fill="#3ddab4" transform="rotate(-83.166 42.739 21.525)"/><rect width="4" height="6.001" x="3.262" y="23.475" fill="#3ddab4" transform="rotate(-83.166 5.262 26.475)"/><rect width="4" height="6.001" x="19.525" y="39.738" fill="#3ddab4" transform="rotate(-6.832 21.518 42.722)"/><circle cx="32.485" cy="15.515" r="6" fill="#7decd6"/><circle cx="14.101" cy="26.828" r="3" fill="#7decd6"/><circle cx="26.121" cy="26.121" r="2" fill="#7decd6"/><g><path fill="#00b569" d="M39.556,11.272l1.299-1.299c-0.375-0.544-0.796-1.065-1.28-1.549 c-0.484-0.484-1.005-0.905-1.549-1.28l-1.299,1.299L39.556,11.272z"/></g><g><path fill="#00b569" d="M9.973,40.855l1.299-1.299l-2.828-2.828l-1.299,1.299c0.375,0.544,0.796,1.065,1.28,1.549 C8.908,40.06,9.429,40.481,9.973,40.855z"/></g></svg>