<svg xmlns="http://www.w3.org/2000/svg"  viewBox="0 0 48 48" width="500px" height="500px"><path fill="#6c19ff" d="M22,12h4v32h-4V12z"/><rect width="8" height="4" x="4" y="40" fill="#f55376"/><rect width="9" height="4" x="11" y="40" fill="#f5bc00"/><rect width="8" height="4" x="36" y="40" fill="#f55376"/><rect width="9" height="4" x="28" y="40" fill="#f5bc00"/><rect width="10" height="4" x="19" y="40" fill="#f55376"/><rect width="4" height="4" x="22" y="40" fill="#eb0000"/><polygon fill="#f5bc00" points="38,16 28,16 28,12 24,4 38,12"/><polygon fill="#f5bc00" points="20,16 10,16 10,12 24,4 20,12"/><polygon fill="#f55376" points="11,16 4,16 4,12 24,4 11,12"/><polygon fill="#f55376" points="29,16 19,16 19,12 24,4 29,12"/><polygon fill="#f55376" points="44,16 37,16 37,12 24,4 44,12"/><rect width="7" height="4" x="4" y="12" fill="#fa91ad"/><rect width="8" height="4" x="11" y="12" fill="#fadb00"/><rect width="8" height="4" x="29" y="12" fill="#fadb00"/><rect width="10" height="4" x="19" y="12" fill="#fa91ad"/><rect width="7" height="4" x="37" y="12" fill="#fa91ad"/><g><rect width="7" height="3" x="14" y="26" fill="#eb7900"/><path fill="#f5bc00" d="M30,25.933C30.163,25.968,30.327,26,30.5,26c0.432,0,0.833-0.12,1.187-0.313L33.5,27l1.5-2l-3-3v-2 h-1c-3.309,0-6,2.691-6,6h-6l-6,11h4c0-2.761,3.134-5,7-5s7,2.239,7,5h4l-5-9.167V25.933z"/><path fill="#eb7900" d="M27,26h-3c0-3.86,3.141-7,7-7h1v3h-1C28.794,22,27,23.794,27,26z"/></g></svg>