<svg xmlns="http://www.w3.org/2000/svg"  viewBox="0 0 48 48" width="500px" height="500px"><path fill="#7debf5" d="M11.56,32.032L11.56,32.032c-3.759-0.902-6.075-4.681-5.173-8.441L10.59,6.088l13.613,3.268 l-4.202,17.503C19.099,30.618,15.32,32.934,11.56,32.032z"/><polygon fill="#7debf5" points="16.033,43.389 12.004,38.75 14.206,29.581 10.316,28.648 8.115,37.816 2.419,40.121"/><path fill="#f5bc00" d="M9.189,11.923L6.388,23.591c-0.902,3.759,1.413,7.538,5.173,8.441 c3.759,0.902,7.538-1.413,8.441-5.173l2.801-11.668L9.189,11.923z"/><path fill="#eb7900" d="M9.683,31.282c0.572,0.331,1.201,0.587,1.877,0.749c0.676,0.162,1.352,0.22,2.013,0.184l0.633-2.635 l-3.889-0.934L9.683,31.282z"/><path fill="#7debf5" d="M36.504,30.545L36.504,30.545c-3.766,0.873-7.527-1.473-8.399-5.239L24.042,7.771l13.639-3.16 l4.063,17.535C42.616,25.912,40.27,29.673,36.504,30.545z"/><polygon fill="#7debf5" points="45.581,38.707 39.904,36.357 37.775,27.171 33.879,28.074 36.007,37.259 31.942,41.867"/><path fill="#f5bc00" d="M25.396,13.616l2.709,11.69c0.873,3.766,4.633,6.112,8.399,5.239 c3.766-0.873,6.112-4.633,5.239-8.399l-2.709-11.69L25.396,13.616z"/><path fill="#eb7900" d="M34.49,30.714c0.66,0.041,1.337-0.012,2.014-0.168s1.308-0.408,1.883-0.734l-0.612-2.64 l-3.897,0.903L34.49,30.714z"/></svg>