<svg xmlns="http://www.w3.org/2000/svg"  viewBox="0 0 48 48" width="500px" height="500px"><path fill="#fa91ad" d="M22.013,30.221C21.093,21.947,14.688,19,9,19v-4c7.079,0,15.775,3.87,16.987,14.779L22.013,30.221z"/><circle cx="32.091" cy="14.136" r="8.909" fill="#fac8d5"/><path fill="#fac8d5" d="M37,19c2,9,3,14-6,20l-3.478-6.471C32.73,27.246,33.094,27.345,32,20L37,19z"/><circle cx="27" cy="33" r="7" fill="#fac8d5"/><ellipse cx="30.5" cy="27.212" fill="#fac8d5" rx="5.5" ry="5.288"/><ellipse cx="28.843" cy="13.76" fill="#fa91ad" rx="1.97" ry="1.986"/><path fill="#fa91ad" d="M34,25v8H24v-4h6v-4c0-1.105,0.895-2,2-2h0C33.105,23,34,23.895,34,25z"/><polygon fill="#fac8d5" points="22,38 13.927,30.215 16.756,27.387 23.12,33.75"/><polygon fill="#fac8d5" points="19.12,30.215 11.127,37.313 8.299,34.484 16.291,27.387"/></svg>