<svg xmlns="http://www.w3.org/2000/svg"  viewBox="0 0 48 48" width="500px" height="500px"><path fill="#6c19ff" d="M24,40H3V10h15.649C21.604,10,24,12.396,24,15.351V40z"/><path fill="#6c19ff" d="M24,40h21V10H29.351C26.396,10,24,12.396,24,15.351V40z"/><polygon fill="#6c19ff" points="19.056,41 28.944,41 31,37 17,37"/><path fill="#7debf5" d="M24,37H6V7h14c2.209,0,4,1.791,4,4V37z"/><path fill="#3dd9eb" d="M42,37H24V11c0-2.209,1.791-4,4-4h14V37z"/><path fill="#3dd9eb" d="M24,37H6v-4h14C22.209,33,24,34.791,24,37L24,37z"/><path fill="#00b3d7" d="M24,37h18v-4H28C25.791,33,24,34.791,24,37L24,37z"/></svg>