<svg xmlns="http://www.w3.org/2000/svg"  viewBox="0 0 48 48" width="500px" height="500px"><path fill="#6c19ff" d="M44,41H4V11h40V41z"/><path fill="#00b3d7" d="M24,14c-6.627,0-12,5.373-12,12s5.373,12,12,12s12-5.373,12-12S30.627,14,24,14z"/><path fill="#3dd9eb" d="M24,18c-4.418,0-8,3.582-8,8s3.582,8,8,8s8-3.582,8-8S28.418,18,24,18L24,18z"/><path fill="#6c19ff" d="M30,7l2,6H16l2-6H30z"/><path fill="#3dd9eb" d="M12,11H7V9h5V11z"/><path fill="#2100c4" d="M12,14H7v-3h5V14z"/><path fill="#a64aff" d="M42,17h-5v-3h5V17z"/></svg>