<svg xmlns="http://www.w3.org/2000/svg"  viewBox="0 0 48 48" width="500px" height="500px"><path fill="#00b3d7" d="M38.683,7H9.317C5.423,10.812,3,16.12,3,22c0,11.598,9.402,21,21,21s21-9.402,21-21	C45,16.12,42.577,10.812,38.683,7z"/><path fill="#3dd9eb" d="M42,14c-1.657,0-3-1-3-1s-1.343,1-3,1s-3-1-3-1s-1.343,1-3,1s-3-1-3-1s-1.343,1-3,1s-3-1-3-1	s-1.343,1-3,1s-3-1-3-1s-1.343,1-3,1s-3-1-3-1s-1.343,1-3,1c-0.482,0-0.93-0.088-1.333-0.208C3.595,16.313,3,19.087,3,22	c0,11.598,9.402,21,21,21s21-9.402,21-21c0-2.913-0.595-5.687-1.667-8.208C42.93,13.912,42.482,14,42,14z"/><rect width="18" height="4" x="15" y="41" fill="#00b3d7"/><circle cx="36" cy="13.791" r="3" fill="#3dd9eb"/><path fill="#00b3d7" d="M38.902,13.067C38.577,13.285,37.406,14,36,14s-2.577-0.715-2.902-0.933	C33.04,13.3,33,13.54,33,13.791c0,1.657,1.343,3,3,3s3-1.343,3-3C39,13.54,38.96,13.3,38.902,13.067z"/><circle cx="37.5" cy="21.5" r="2.5" fill="#c2ffff"/><circle cx="34.5" cy="27.5" r="1.5" fill="#c2ffff"/><path fill="#f55376" d="M22.597,26c-3.411,0-6.427,1.968-7.597,4.5c1.22,2.494,4.102,4.5,7.403,4.5	c3.411,0,6.427-1.968,7.597-4.5C28.78,28.006,25.898,26,22.597,26z"/><polygon fill="#f55376" points="17.5,30.5 12,27 12,34"/></svg>