<svg xmlns="http://www.w3.org/2000/svg"  viewBox="0 0 48 48" width="500px" height="500px"><rect width="4" height="10" x="22" y="34" fill="#3ddab4"/><path fill="#3ddab4" d="M46.029,24.282c0,0-6.391,0.319-12.474,3.831c-0.525,0.303-1.023,0.623-1.508,0.949	c0.995-1.283,1.977-2.699,2.873-4.251c4.423-7.66,5.097-15.551,5.097-15.551s-6.497,4.529-10.919,12.189	c-0.494,0.856-0.935,1.713-1.339,2.563C27.906,22.724,28,21.385,28,20c0-9.389-4-17-4-17s-4,7.611-4,17	c0,1.385,0.094,2.724,0.243,4.012c-0.405-0.85-0.845-1.708-1.339-2.563C14.481,13.788,7.984,9.259,7.984,9.259	s0.674,7.891,5.097,15.551c0.896,1.552,1.878,2.968,2.873,4.251c-0.485-0.326-0.983-0.646-1.508-0.949	c-6.083-3.512-12.474-3.831-12.474-3.831s3.472,5.375,9.555,8.887c0.966,0.558,1.938,1.027,2.893,1.435C10.758,35.076,8,37,8,37	s3.582,2.5,8,2.5c4.418,0,8-2.5,8-2.5l0,0h0h0l0,0c0,0,3.582,2.5,8,2.5c4.418,0,8-2.5,8-2.5s-2.758-1.924-6.419-2.396	c0.955-0.408,1.927-0.877,2.893-1.435C42.557,29.657,46.029,24.282,46.029,24.282z"/><path fill="#00b569" d="M26,34h-4v4.095C23.241,37.526,24,37,24,37h0h0c0,0,0.759,0.526,2,1.095V34z"/></svg>