<svg xmlns="http://www.w3.org/2000/svg"  viewBox="0 0 48 48" width="500px" height="500px"><rect width="34" height="4" x="8" y="40" fill="#f5bc00"/><polygon fill="#6c19ff" points="23,33 28,34 28,44 23,44"/><polygon fill="#7decd6" points="16.99,14.98 15.82,18.95 15.72,19.3 14.93,21.98 14.86,22.2 14.03,24.99 6,23 6.86,19.78 7.72,16.55 10,8 12.97,9 11.88,13.54"/><polygon fill="#3ddab4" points="16.01,22 15,22 14.93,21.98 6.86,19.78 7.72,16.55 13.71,18.32 15.82,18.95 16,19"/><circle cx="22.5" cy="8.5" r="5.5" fill="#6c19ff"/><circle cx="41" cy="7" r="2" fill="#3dd9eb"/><circle cx="11.56" cy="8.014" r="3" fill="#3dd9eb"/><circle cx="34.5" cy="14.5" r="3" fill="#3dd9eb"/><circle cx="44" cy="19" r="2" fill="#3dd9eb"/><polygon fill="#6c19ff" points="24,17 17,15 14,25 23,36 27,33 21,26"/><polygon fill="#6c19ff" points="14,44 19,44 21,36 19,26 14,25 16,36"/><polygon fill="#6c19ff" points="34,26 26,26 20,19 24,17 27,21 34,21"/><path fill="#ddbaff" d="M25.772,9.467c-0.516,1.957-2.522,3.126-4.478,2.61l1.868-7.089 C25.118,5.504,26.288,7.51,25.772,9.467z"/><circle cx="38" cy="32.5" r="3" fill="#3dd9eb"/><circle cx="25.25" cy="34.25" r="2.75" fill="#2100c4"/><circle cx="23.25" cy="19.25" r="2.75" fill="#2100c4"/><circle cx="18.25" cy="36.25" r="2.75" fill="#2100c4"/><rect width="5" height="4" x="23" y="40" fill="#2100c4"/><polygon fill="#2100c4" points="14,44 19,44 20,40 15,40"/></svg>