<svg xmlns="http://www.w3.org/2000/svg"  viewBox="0 0 48 48" width="500px" height="500px"><polygon fill="#eb7900" points="4,7.371 5.5,11 12,10 11.59,4.609"/><path fill="#f5bc00" d="M31,20v10.167C31,31.18,30.18,32,29.167,32h0c-0.731,0-1.392-0.434-1.682-1.105L17.027,6.703	c-0.884-1.978-3.146-2.928-5.167-2.193L9.656,5.312l10.95,30.263c1.529,4.444,5.813,7.606,10.819,7.417	C37.39,42.767,42,37.624,42,31.654V20H31z"/><rect width="11" height="4" x="31" y="18" fill="#eb7900"/><circle cx="33" cy="36" r="1" fill="#fae56b"/><circle cx="35.5" cy="26.5" r="1.5" fill="#fae56b"/><circle cx="35.5" cy="31.5" r="1.5" fill="#fae56b"/><circle cx="25.584" cy="26.5" r="1.5" fill="#fae56b"/><circle cx="23.854" cy="22.5" r="1.5" fill="#fae56b"/><circle cx="22.125" cy="18.5" r="1.5" fill="#fae56b"/><circle cx="20.625" cy="14.977" r="1" fill="#fae56b"/><circle cx="19.311" cy="12" r="1" fill="#fae56b"/></svg>