<svg xmlns="http://www.w3.org/2000/svg"  viewBox="0 0 48 48" width="500px" height="500px"><circle cx="10" cy="11" r="7" fill="#2100c4"/><circle cx="38" cy="11" r="7" fill="#2100c4"/><path fill="#6c19ff" d="M45,22.222C45,31.611,35.598,43,24,43S3,31.611,3,22.222S12.402,9,24,9S45,12.833,45,22.222z"/><path fill="#2100c4" d="M32.5,26h-17c-2.485,0-4.5-2.015-4.5-4.5v0c0-2.485,2.015-4.5,4.5-4.5h17c2.485,0,4.5,2.015,4.5,4.5	v0C37,23.985,34.985,26,32.5,26z"/><circle cx="16.5" cy="21.5" r="1.5" fill="#6c19ff"/><circle cx="32.5" cy="21.5" r="1.5" fill="#6c19ff"/><path fill="#2100c4" d="M24,47L24,47c-4.845,0-8.655-4.141-8.253-8.969L17,23h14l1.253,15.031C32.655,42.859,28.845,47,24,47	z"/><path fill="#6c19ff" d="M28,35c0,1.105-1.791,3-4,3s-4-1.895-4-3s1.791-2,4-2S28,33.895,28,35z"/><path fill="#6c19ff" d="M24,43c-2.786,0-5.443-0.643-7.875-1.738C17.194,44.568,20.289,47,24,47s6.806-2.432,7.875-5.738	C29.443,42.357,26.786,43,24,43z"/></svg>