<svg xmlns="http://www.w3.org/2000/svg"  viewBox="0 0 48 48" width="500px" height="500px"><path fill="#ddbaff" d="M14,23c2.209,0,4,1.791,4,4s-1.791,4-4,4s-4-1.791-4-4S11.791,23,14,23"/><path fill="#fae56b" d="M6,36v-6c0,0,16-0.001,16,0v6H6z"/><path fill="#fadb00" d="M44,36H20V24h24V36z"/><rect width="24" height="6" x="20" y="30" fill="#f5bc00"/><path fill="#6c19ff" d="M8,43H4V18h4v16h36v9h-4v-5H8V43z"/><rect width="4" height="4" x="4" y="34" fill="#2100c4"/><rect width="4" height="4" x="40" y="34" fill="#2100c4"/><polygon fill="#6c19ff" points="24,21 18,21 18,17.379 20.379,15 18,15 18,12 24,12 24,15.621 21.621,18 24,18"/><polygon fill="#6c19ff" points="32,15 26,15 26,11.379 28.379,9 26,9 26,6 32,6 32,9.621 29.621,12 32,12"/></svg>