<svg xmlns="http://www.w3.org/2000/svg"  viewBox="0 0 48 48" width="500px" height="500px"><path fill="#f55376" d="M5,43h7.5c0-16.845,13.655-30.5,30.5-30.5V5C22.047,5,5,22.047,5,43z"/><path fill="#f5bc00" d="M10,43h7.5c0-14.083,11.417-25.5,25.5-25.5V10C24.804,10,10,24.804,10,43z"/><path fill="#00b569" d="M15,43h7.5c0-11.322,9.178-20.5,20.5-20.5V15C27.561,15,15,27.561,15,43z"/><path fill="#3dd9eb" d="M20,43h7.5c0-8.56,6.94-15.5,15.5-15.5V20C30.317,20,20,30.318,20,43z"/><path fill="#6c19ff" d="M30,43h-5c0-9.925,8.075-18,18-18v5C35.832,30,30,35.832,30,43z"/></svg>