<svg xmlns="http://www.w3.org/2000/svg"  viewBox="0 0 48 48" width="500px" height="500px"><path fill="#7debf5" d="M2,26v13h44V26H2z"/><path fill="#6c19ff" d="M46,9H2v19h44V9z"/><path fill="#6c19ff" d="M7,26h4v8H7V26z M14,26h4v8h-4V26z M21,26h4v8h-4V26z M30,26h4v8h-4V26z M37,26h4v8h-4V26z"/><path fill="#2100c4" d="M11,28H7v-4h4V28z M18,24h-4v4h4V24z M25,24h-4v4h4V24z M34,24h-4v4h4V24z M41,24h-4v4h4V24z"/><circle cx="32" cy="17" r="2" fill="#ddbaff"/><circle cx="39" cy="17" r="2" fill="#ddbaff"/><path fill="#fae56b" d="M8,13h16v8H8V13z"/><rect width="4" height="3" x="8" y="18" fill="#f5bc00"/><rect width="4" height="5" x="12" y="16" fill="#eb7900"/><rect width="4" height="6" x="20" y="15" fill="#eb7900"/><rect width="4" height="3" x="16" y="18" fill="#f5bc00"/></svg>