<svg xmlns="http://www.w3.org/2000/svg"  viewBox="0 0 48 48" width="500px" height="500px"><polygon fill="#3ddab4" points="34.714,24.225 36.677,15.407 48,24.056 39.619,28.213"/><polygon fill="#3ddab4" points="28.009,44.006 23.478,40.074 37,21 42,25"/><rect width="23" height="28" x="5.009" y="16.006" fill="#3ddab4"/><path fill="#3ddab4" d="M17.509,26.015h-7c-5.79,0-10.5-4.71-10.5-10.5s4.71-10.5,10.5-10.5h7c5.79,0,10.5,4.71,10.5,10.5 S23.299,26.015,17.509,26.015z M10.509,8.015c-4.136,0-7.5,3.364-7.5,7.5s3.364,7.5,7.5,7.5h7c4.136,0,7.5-3.364,7.5-7.5 s-3.364-7.5-7.5-7.5H10.509z"/><polygon fill="#00b569" points="37,21 42,25 39.619,28.213 34.714,24.225"/><path fill="#00b569" d="M24.984,16.006c-0.255,3.906-3.505,7.008-7.475,7.008h-7c-2.174,0-4.129-0.935-5.5-2.418v3.845 c1.602,0.991,3.482,1.573,5.5,1.573h7c5.624,0,10.216-4.448,10.475-10.008H24.984z"/></svg>