<svg xmlns="http://www.w3.org/2000/svg"  viewBox="0 0 48 48" width="500px" height="500px"><path fill="#6c19ff" d="M11.688,28.183c1.36,0.294,2.589,0.937,3.597,1.828c0.486-0.721,1.032-1.437,1.611-2.145 l-2.514-3.248C13.369,25.784,12.471,26.985,11.688,28.183z"/><path fill="#6c19ff" d="M30.16,16.05L28.77,12c-0.03-0.09-3.34-8.86-12.54-5.69l1.3,3.78c5.25-1.81,7.15,2.42,7.47,3.24 L25.23,14l0.89,2.6h-0.01c-3.546,1.222-6.467,3.054-8.884,5.165l2.47,3.176l-0.009,0.01c2.101-1.871,4.638-3.498,7.733-4.571 l1.072,3.113c1.143-0.665,2.413-1.125,3.768-1.342L30.16,16.05z"/><path fill="#6c19ff" d="M17.226,21.765c-1.04,0.908-1.987,1.866-2.845,2.853l2.514,3.248 c0.828-1.011,1.754-1.992,2.791-2.915l0.009-0.01L17.226,21.765z"/><path fill="none" d="M6.571,36c0,1.891,1.538,3.429,3.429,3.429s3.429-1.538,3.429-3.429c0-0.663-0.198-1.277-0.524-1.802 c-0.024,0.05-0.051,0.102-0.074,0.152l-3.597-1.685C7.712,33.016,6.571,34.374,6.571,36z"/><path fill="#a64aff" d="M13.429,36c0,1.891-1.538,3.429-3.429,3.429S6.571,37.891,6.571,36 c0-1.626,1.14-2.984,2.661-3.335L9.2,32.65c0.671-1.422,1.492-2.94,2.488-4.467C11.143,28.065,10.579,28,10,28 c-4.411,0-8,3.589-8,8s3.589,8,8,8s8-3.589,8-8c0-2.384-1.055-4.523-2.715-5.99c-0.959,1.424-1.746,2.85-2.381,4.188 C13.231,34.723,13.429,35.337,13.429,36z"/><path fill="#a64aff" d="M34,22c-0.594,0-1.172,0.06-1.74,0.151l1.331,3.869C33.727,26.013,33.862,26,34,26 c3.859,0,7,3.141,7,7s-3.141,7-7,7s-7-3.141-7-7c0-2.297,1.118-4.334,2.833-5.611l-1.341-3.896C25.214,25.4,23,28.943,23,33 c0,6.065,4.935,11,11,11s11-4.935,11-11S40.065,22,34,22z"/><path fill="#2100c4" d="M9.2,32.65l0.033,0.015C9.48,32.608,9.735,32.571,10,32.571c1.228,0,2.298,0.654,2.904,1.627 c0.635-1.338,1.422-2.763,2.381-4.188c-1.008-0.89-2.236-1.534-3.597-1.828C10.692,29.71,9.871,31.228,9.2,32.65z"/><path fill="#6c19ff" d="M31.98,33.53l3.78-1.3l-2.169-6.209c-1.404,0.082-2.695,0.577-3.758,1.368L31.98,33.53z"/><path fill="#2100c4" d="M33.591,26.021l-1.331-3.869c-1.354,0.217-2.625,0.677-3.768,1.342l1.341,3.896 C30.896,26.597,32.187,26.102,33.591,26.021z"/><path fill="#6c19ff" d="M14,18H9l5.382,6.618c0.857-0.987,1.805-1.945,2.845-2.853L14,18z"/><rect width="12.5" height="4" x="4.5" y="14.5" fill="#a64aff"/></svg>