<svg xmlns="http://www.w3.org/2000/svg"  viewBox="0 0 48 48" width="500px" height="500px"><circle cx="24" cy="26" r="17" fill="#3dd9eb"/><circle cx="24" cy="26" r="8" fill="#00b3d7"/><path fill="#6c19ff" d="M45,18c0-3.866-3.134-7-7-7v16v3v11h3V30h4V18z"/><path fill="#6c19ff" d="M12,11v9h-2v-9H7v9H5v-9H2v9c0,2.761,2.239,5,5,5v16h3V25c2.761,0,5-2.239,5-5v-9H12z"/><path fill="#2100c4" d="M41,26c0-3.579-1.111-6.895-3-9.634V27v3v5.634C39.889,32.895,41,29.579,41,26z"/><path fill="#2100c4" d="M12,13.96V20h-2v-3.634C8.111,19.105,7,22.421,7,26c0,3.579,1.111,6.895,3,9.634V25	c2.761,0,5-2.239,5-5v-8.403C13.915,12.276,12.902,13.061,12,13.96z"/></svg>