<svg xmlns="http://www.w3.org/2000/svg"  viewBox="0 0 48 48" width="500px" height="500px"><path fill="#3ddab4" d="M15,15H1c0,0,1.5-4,7-4S15,15,15,15z"/><path fill="#3ddab4" d="M15,15L4.711,24.494c0,0-1.61-3.957,2.432-7.687S15,15,15,15z"/><path fill="#3ddab4" d="M15,15L4.711,5.506c0,0,3.815-1.922,7.857,1.807S15,15,15,15z"/><path fill="#3ddab4" d="M15,15h14c0,0-1.5-4-7-4S15,15,15,15z"/><path fill="#3ddab4" d="M15,15l10.289,9.494c0,0,1.61-3.957-2.432-7.687S15,15,15,15z"/><path fill="#3ddab4" d="M15,15l10.289-9.494c0,0-3.815-1.922-7.857,1.807S15,15,15,15z"/><polygon fill="#f5bc00" points="10,35 15,11 20,35 20,36 10,36"/><polygon fill="#00b569" points="15,15 16.032,15.952 15.001,11.003 15,11.004 14.999,11.003 13.968,15.952"/><path fill="#00b3d7" d="M42,36c-1.657,0-3-1-3-1s-1.343,1-3,1s-3-1-3-1s-1.343,1-3,1s-3-1-3-1v3.135V43h18v-8	C45,35,43.657,36,42,36z"/><path fill="#3dd9eb" d="M27,35c0,0,0.386,0.288,1,0.554C28.055,35.578,45,43,45,43H26v-8H27z"/><path fill="#fadb00" d="M27,43H3v-8h24V43z"/></svg>