<svg xmlns="http://www.w3.org/2000/svg"  viewBox="0 0 48 48" width="500px" height="500px"><path fill="#6c19ff" d="M10.5,43H8.1C4.7,43,2,40.3,2,36.9c0-2.1,1.1-4.1,3-5.2l5-3c1.2-0.7,2-2.1,2-3.5c0-2.3-1.8-4.1-4.1-4.1H6v-2 h1.9c3.4,0,6.1,2.7,6.1,6.1c0,2.1-1.1,4.1-3,5.2l-5,3c-1.2,0.7-2,2.1-2,3.5C4,39.2,5.8,41,8.1,41h2.4V43z"/><rect width="5.8" height="2" x="8.9" y="39.3" fill="#3dd9eb" transform="rotate(-45.001 11.807 40.254)"/><rect width="10" height="35" x="24.1" y="5.5" fill="#3dd9eb" transform="rotate(45.001 29.061 23)"/><polygon fill="#f5bc00" points="20.9,21.2 18.1,18.4 33.7,2.8 45,14.2 42.1,17 33.7,8.5"/><rect width="6" height="8" x="39.1" y="5.9" fill="#3dd9eb" transform="rotate(45.001 42.142 9.918)"/><rect width="4" height="10" x="38" y="7" fill="#eb7900" transform="rotate(-45.001 40.02 12.04)"/><polygon fill="#7debf5" points="12.4,41 20.2,38.9 13.2,31.8 11,39.6"/></svg>