<svg xmlns="http://www.w3.org/2000/svg"  viewBox="0 0 48 48" width="500px" height="500px"><path fill="#f5bc00" d="M28.6,16.7h-9.3c-2.4,0-4.4-2-4.4-4.4v0C15,10,17,8,19.4,8h9.3C31,8,33,10,33,12.4v0 C33,14.8,31,16.7,28.6,16.7z"/><path fill="#f5bc00" d="M34,24H14c-2.8,0-5-2.2-5-5v0c0-2.8,2.2-5,5-5h20c2.8,0,5,2.2,5,5v0C39,21.8,36.8,24,34,24z"/><polygon fill="#6c19ff" points="37,43 11,43 8,27 40,27"/><polygon fill="#a64aff" points="28.9,43 19.1,43 18,27 30,27"/><path fill="#eb7900" d="M15.3,14c0.6,1.6,2.2,2.7,4,2.7h9.3c1.8,0,3.4-1.1,4-2.7H15.3z"/><path fill="#f5bc00" d="M37.6,31H10.4c-3,0-5.4-2.4-5.4-5.4v-0.3c0-3,2.4-5.4,5.4-5.4h27.3c3,0,5.4,2.4,5.4,5.4v0.3 C43,28.6,40.6,31,37.6,31z"/><path fill="#eb7900" d="M37.6,20H10.4c-0.4,0-0.8,0.1-1.2,0.2C9.7,22.4,11.6,24,14,24h20c2.4,0,4.3-1.6,4.9-3.8 C38.5,20.1,38.1,20,37.6,20z"/><polygon fill="#f5bc00" points="27.4,4 22.8,9.7 32.1,9.7"/></svg>