<svg xmlns="http://www.w3.org/2000/svg"  viewBox="0 0 48 48" width="500px" height="500px"><rect width="19.799" height="3" x="17.101" y="17.5" fill="#f5bc00" transform="rotate(-45.001 27 19)"/><path fill="#f5bc00" d="M36.379,14.654c-1.289,0-2.579-0.491-3.561-1.473c-1.964-1.963-1.964-5.158,0-7.121L35.879,3	L43,10.121l-3.061,3.061C38.958,14.163,37.668,14.654,36.379,14.654z M35.879,7.242l-0.939,0.939c-0.794,0.794-0.794,2.085,0,2.879	c0.793,0.793,2.086,0.793,2.879,0l0.939-0.939L35.879,7.242z"/><path fill="#f5bc00" d="M3,31v12h42V31H3z"/><path fill="#3dd9eb" d="M19.916,34H12v-7.202c0-1.724,0.636-3.388,1.788-4.672l5.269-5.876l10.891,10.891l-5.22,4.943	C23.428,33.314,21.706,34,19.916,34z"/><path fill="#eb7900" d="M12,31v3h7.916c1.79,0,3.512-0.686,4.812-1.916L25.872,31H12z"/><rect width="6.227" height="3" x="19.088" y="22.299" fill="#00b3d7" transform="rotate(-45.001 22.201 23.799)"/></svg>