<svg xmlns="http://www.w3.org/2000/svg"  viewBox="0 0 48 48" width="500px" height="500px"><path fill="#f55376" d="M15,39.9L8.5,28.6C4.3,21.2,9.6,12,18.1,12h11.8c8.5,0,13.8,9.2,9.6,16.6L33,39.9C29,46.9,19,46.9,15,39.9z"/><polygon fill="#f5bc00" points="24,28 25,25 23,25"/><polygon fill="#f5bc00" points="16,28 17,25 15,25"/><polygon fill="#f5bc00" points="32,28 33,25 31,25"/><polygon fill="#f5bc00" points="20.1,35 21.1,32 19.1,32"/><polygon fill="#f5bc00" points="28,35 29,32 27,32"/><polygon fill="#f5bc00" points="24,41 25,38 23,38"/><path fill="#3ddab4" d="M33.9,8.8c-3-1.2-6.2-1.1-9.2,0.1l1.4-4.8h-4.2l1.4,4.8c-2.9-1.1-6.1-1.3-9.1-0.1c-3.3,1.3-5.7,3.9-7,7.1	c3.1,1.4,6.6,1.7,9.9,0.4c0.7-0.3,1.4-0.6,2-1c0.4,3,2.2,5.7,4.9,7.8c2.8-2.1,4.6-4.8,4.9-7.8c0.6,0.4,1.3,0.7,2,1	c3.3,1.3,6.8,1,9.9-0.4C39.5,12.7,37.1,10.1,33.9,8.8z"/><path fill="#00b569" d="M38.8,16.6c-2-2.7-5.1-4.5-8.9-4.5H18.1c-3.8,0-7,1.8-8.9,4.5c2.6,0.8,5.4,0.7,7.9-0.3c0.7-0.3,1.4-0.6,2-1 c0.4,3,2.2,5.7,4.9,7.8c2.8-2.1,4.6-4.8,4.9-7.8c0.6,0.4,1.3,0.7,2,1C33.5,17.3,36.3,17.3,38.8,16.6z"/></svg>