<svg xmlns="http://www.w3.org/2000/svg"  viewBox="0 0 48 48" width="500px" height="500px"><path fill="#7debf5" d="M24,46L24,46c-4.418,0-8-3.582-8-8V6h16v32C32,42.418,28.418,46,24,46z"/><rect width="20" height="5" x="14" y="2" fill="#7debf5"/><path fill="#3ddab4" d="M32,38V19H16v19c0,4.418,3.582,8,8,8S32,42.418,32,38z"/><path fill="#7decd6" d="M21,31.5c0-0.8,0.7-1.5,1.5-1.5s1.5,0.7,1.5,1.5S23.3,33,22.5,33S21,32.3,21,31.5z M25,39 c0.6,0,1-0.4,1-1s-0.4-1-1-1s-1,0.4-1,1S24.4,39,25,39z M24.5,27c1.4,0,2.5-1.1,2.5-2.5S25.9,22,24.5,22S22,23.1,22,24.5 S23.1,27,24.5,27z"/><rect width="16" height="3" x="16" y="4" fill="#3dd9eb"/></svg>