<svg xmlns="http://www.w3.org/2000/svg"  viewBox="0 0 48 48" width="500px" height="500px"><path fill="#3dd9eb" d="M37.338,7.536c-0.196,0.126-1.111,0.999-1.745,1.622l0,0c0,0-0.014,0.014-0.018,0.018 c-0.284,0.279-0.515,0.511-0.584,0.588c-0.003,0.003-0.006,0.007-0.009,0.011C31.623,13.175,15.123,29.943,10,36.49 C7.247,40.008,7,41,7,41s1.09-0.404,4.496-3c6.714-5.117,24.628-21.429,27.593-24.137c0.106-0.091,0.244-0.217,0.413-0.377 c0.003-0.003,0.017-0.015,0.017-0.015l0,0c0.679-0.646,1.697-1.679,1.865-1.904C43.366,8.91,40.123,5.737,37.338,7.536z M37.534,12.954l-3.725,3.603c-0.228,0.217-0.523,0.32-0.814,0.313c-0.292-0.008-0.58-0.127-0.797-0.355 c-0.433-0.456-0.414-1.178,0.042-1.611l3.725-3.603c0.457-0.433,1.178-0.414,1.611,0.042C38.009,11.799,37.99,12.521,37.534,12.954 z"/><path fill="#f55376" d="M40.985,38.978c-2.634,0.812-7.379,1.794-9.655,0.22c-0.906-0.627-1.347-1.673-1.347-3.198 c0-2.13,1.654-4.519,3.406-7.047c2.606-3.762,5.766-8.327,4.189-13.714l0,0c-0.367,0.334-0.902,0.432-1.354,0.842 c-0.425,0.386-0.763,1.079-1.254,1.523c0.268,3.399-1.84,6.453-4.047,9.64c-2.026,2.925-3.94,5.688-3.94,8.755 c0,3.176,1.438,4.835,2.644,5.668c1.473,1.017,3.364,1.366,5.268,1.366c2.76,0,5.543-0.734,7.101-1.227L40.985,38.978z"/><path fill="#f55376" d="M32.52,12.276c0.405-0.413,1.002-0.632,1.338-0.973c0.38-0.386,0.487-0.884,0.765-1.165h0 c-1.277-1.328-2.804-2.247-4.571-2.735c-5.613-1.551-11.552,1.883-11.802,2.03l1.52,2.587c0.05-0.03,5.11-2.944,9.495-1.722 C30.53,10.65,31.606,11.305,32.52,12.276z"/><path fill="#00b3d7" d="M36.573,12.831c-0.564-1.034-1.216-1.93-1.95-2.693C34.337,10.428,35.394,11.599,35,12 c-0.327,0.332-2.089-0.122-2.48,0.276c0.525,0.558,0.998,1.219,1.42,1.992c0.631,1.157,0.946,2.264,1.031,3.336 c1.013-0.916,1.895-1.717,2.608-2.365C37.349,14.454,37.021,13.651,36.573,12.831z"/><path fill="#f55376" d="M36.573,12.831c-0.257-0.47-0.537-0.904-0.829-1.318l-2.196,2.124 c0.132,0.207,0.269,0.404,0.393,0.63c0.283,0.519,0.494,1.026,0.657,1.525l2.32-2.244C36.806,13.31,36.705,13.073,36.573,12.831z"/><g><path fill="#f55376" d="M33.547,13.638l2.196-2.124c-0.35-0.496-0.721-0.959-1.12-1.375 c-0.147,0.149-0.313,0.318-0.49,0.497c-0.45,0.457-0.989,1.005-1.607,1.635C32.524,12.272,33.228,13.137,33.547,13.638z"/></g></svg>