<svg xmlns="http://www.w3.org/2000/svg"  viewBox="0 0 48 48" width="500px" height="500px"><path fill="#fac8d5" d="M32.046,44.664l-4.018-2.977l2.439-3.293l-2.905-2.905l3.536-3.535l3.72,3.721 c0.694,0.695,1.077,1.618,1.077,2.6c0,0.904-0.324,1.758-0.917,2.43L32.046,44.664z"/><rect width="15.97" height="8.469" x="16" y="21.617" fill="#fac8d5"/><path fill="#fac8d5" d="M15.938,44.664l-2.933-3.96c-0.593-0.671-0.917-1.524-0.917-2.428 c-0.001-0.982,0.382-1.906,1.077-2.602l3.72-3.721l3.536,3.535l-2.905,2.905l2.439,3.293L15.938,44.664z"/><path fill="#fac8d5" d="M29.771,11.758H18.199c-0.829,0-1.5-0.672-1.5-1.5s0.671-1.5,1.5-1.5h11.571 c0.829,0,1.5,0.672,1.5,1.5S30.599,11.758,29.771,11.758z"/><circle cx="24" cy="9.5" r="6.5" fill="#fac8d5"/><polygon fill="#6c19ff" points="23.985,28 16,28 16,32.872 18.894,37 23.985,37"/><polygon fill="#6c19ff" points="23.985,28 31.97,28 31.97,32.872 29.076,37 23.985,37"/><path fill="#fac8d5" d="M10.981,28.76l-2.686-2.965l7.352-6.66C16.43,18.408,17.463,18,18.54,18H27v4h-8.46 c-0.064,0-0.132,0.029-0.19,0.084L10.981,28.76z"/><path fill="#fac8d5" d="M37.019,28.76l-7.352-6.66c-0.075-0.07-0.143-0.1-0.207-0.1H21v-4h8.46 c1.076,0,2.109,0.408,2.91,1.15l7.334,6.645L37.019,28.76z"/></svg>