<svg xmlns="http://www.w3.org/2000/svg"  viewBox="0 0 48 48" width="500px" height="500px"><rect width="4" height="23.938" x="14.969" y="20" fill="#6c19ff"/><path fill="#6c19ff" d="M19.063,23.938h-4.125C11.658,23.938,9,21.279,9,18v0h16v0C25,21.279,22.342,23.938,19.063,23.938z"/><rect width="4" height="27" x="30" y="17" fill="#6c19ff"/><path fill="#6c19ff" d="M39,28h-9V4h0c4.971,0,9,4.029,9,9V28z"/><rect width="4" height="14" x="9" y="4" fill="#6c19ff"/><rect width="4" height="14" x="21" y="4" fill="#6c19ff"/><rect width="4" height="17" x="15" y="4" fill="#6c19ff"/><rect width="4" height="3.938" x="14.969" y="20" fill="#2100c4"/><rect width="4" height="4" x="30" y="24" fill="#2100c4"/></svg>