<svg xmlns="http://www.w3.org/2000/svg"  viewBox="0 0 48 48" width="500px" height="500px"><path fill="#3dd9eb" d="M28.51,31.338l-2.828-2.828l0.655-0.655c0.749-0.79,1.672-1.458,2.708-1.948 c3.667-1.738,8.122-0.851,10.832,2.171L36.9,30.752c-1.543-1.712-4.064-2.216-6.144-1.23c-0.59,0.279-1.112,0.657-1.556,1.124 L28.51,31.338z"/><polygon fill="#f5bc00" points="26.051,34.536 33.475,32.061 15.09,13.676 12.616,21.101"/><path fill="#3dd9eb" d="M18.642,21.47l-2.828-2.828l0.655-0.655c0.505-0.48,0.883-1.003,1.161-1.592 c0.985-2.081,0.489-4.596-1.229-6.144l2.674-2.975c3.003,2.694,3.909,7.164,2.17,10.832c-0.49,1.035-1.157,1.958-1.985,2.743 L18.642,21.47z"/><polygon fill="#fadb00" points="8.019,34.889 5.898,41.253 12.262,39.132"/><polygon fill="#f5bc00" points="11.201,39.486 18.626,37.011 10.141,28.525 7.666,35.95"/><polygon fill="#fadb00" points="18.626,37.011 26.051,34.536 12.616,21.101 10.141,28.525"/><path fill="#00b3d7" d="M30.887,29.473l-2.942-2.942c-0.593,0.386-1.139,0.827-1.61,1.324l-0.655,0.655l2.828,2.828 l0.691-0.692c0.444-0.467,0.967-0.845,1.556-1.124C30.799,29.502,30.844,29.492,30.887,29.473z"/><path fill="#f55376" d="M30.374,21.303l-2.828-2.828c0.037-0.037,0.07-0.073,0.101-0.11l3.096,2.533 C30.632,21.032,30.509,21.168,30.374,21.303z"/><path fill="#f55376" d="M30.74,20.9l-3.092-2.539c0.194-0.236,0.218-0.425,0.232-1.132c0.021-1.01,0.053-2.536,1.504-3.989 c1.454-1.453,2.98-1.484,3.991-1.506c0.801-0.017,0.95-0.041,1.245-0.336c0.293-0.293,0.317-0.442,0.333-1.241 c0.021-1.011,0.052-2.537,1.505-3.99c1.452-1.452,2.979-1.482,3.989-1.502c0.798-0.017,0.947-0.04,1.239-0.332l2.828,2.828 c-1.452,1.452-2.979,1.482-3.988,1.503c-0.798,0.016-0.947,0.039-1.239,0.332c-0.294,0.293-0.318,0.443-0.334,1.242 c-0.021,1.01-0.052,2.536-1.505,3.989s-2.979,1.484-3.99,1.506c-0.801,0.017-0.95,0.041-1.245,0.336 c-0.294,0.293-0.317,0.443-0.334,1.243C31.861,18.211,31.833,19.569,30.74,20.9z"/><path fill="#00b3d7" d="M17.629,16.396c-0.278,0.589-0.656,1.112-1.161,1.592l-0.655,0.655l2.828,2.828l0.617-0.619 c0.521-0.494,0.971-1.049,1.36-1.646l-2.941-2.941C17.659,16.307,17.649,16.353,17.629,16.396z"/><circle cx="25.5" cy="8.5" r="1.5" fill="#f55376"/><circle cx="44.5" cy="27.5" r="1.5" fill="#3dd9eb"/><circle cx="9.5" cy="12.5" r="1.5" fill="#3dd9eb"/><circle cx="15.5" cy="3.5" r="1.5" fill="#f5bc00"/><circle cx="38.5" cy="18.5" r="1.5" fill="#f5bc00"/><circle cx="34.5" cy="2.5" r="1.5" fill="#f5bc00"/></svg>