<svg xmlns="http://www.w3.org/2000/svg"  viewBox="0 0 48 48" width="500px" height="500px"><path fill="#3dd9eb" d="M44,20H33v-8h11c2.209,0,4,1.791,4,4v0C48,18.209,46.209,20,44,20z"/><path fill="#3dd9eb" d="M12,37H7c-3.866,0-7,3.134-7,7v0h19v0C19,40.134,15.866,37,12,37z"/><path fill="#3dd9eb" d="M32.5,3c-0.169,0-0.334,0.016-0.5,0.025V3C6,3,7,37,7,37s5,1,5,0c0-12,15-17,20-17v-0.025	C32.166,19.984,32.331,20,32.5,20c4.694,0,8.5-3.806,8.5-8.5C41,6.806,37.194,3,32.5,3z"/><path fill="#3dd9eb" d="M24,17v11c0,0,8,0,8-11C28,17,24,17,24,17z"/><path fill="#00b3d7" d="M31.768,20.007C31.915,19.108,32,18.113,32,17c-4,0-8,0-8,0v4.989	C27.051,20.691,29.966,20.057,31.768,20.007z"/><path fill="#3dd9eb" d="M17,14L9,6l0,0c3.866-3.866,10.134-3.866,14,0l1,1L17,14z"/><path fill="#00b3d7" d="M14.339,11.339L17,14l7-7l-1-1c-0.328-0.328-0.678-0.618-1.038-0.89	C18.8,6.606,16.307,8.795,14.339,11.339z"/><rect width="5" height="7" x="7" y="37" fill="#00b3d7"/><circle cx="34.5" cy="11.5" r="1.5" fill="#2100c4"/></svg>