<svg xmlns="http://www.w3.org/2000/svg"  viewBox="0 0 48 48" width="500px" height="500px"><path fill="#f5bc00" d="M41.8,10.1c-0.3-0.8-0.8-1.6-1.4-2.2C35.9,3.4,25,7,16,16S3.4,35.9,7.9,40.4c0.6,0.6,1.3,1.1,2.2,1.4 L41.8,10.1z"/><path fill="#f5bc00" d="M40.4,15.7L15.7,40.4c-2.1,2.1-5.6,2.1-7.8,0l0,0c-2.1-2.1-2.1-5.6,0-7.8L32.6,7.9c2.1-2.1,5.6-2.1,7.8,0l0,0 C42.6,10,42.6,13.5,40.4,15.7z"/><path fill="#eb7900" d="M21.7,21.7c1.2-1.2-0.1-4.3-2.8-7.1c-0.2-0.2-0.4-0.4-0.7-0.6c-0.7,0.6-1.5,1.3-2.2,2s-1.4,1.4-2,2.2 c0.2,0.2,0.4,0.4,0.6,0.7C17.3,21.6,20.5,22.9,21.7,21.7z"/><path fill="#eb7900" d="M8.6,28c3.6,1.4,7,1.3,7.6-0.2c0.6-1.5-1.8-3.9-5.4-5.4c0,0,0,0,0,0c-1.2,1.8-2.2,3.5-2.9,5.3 C8,27.8,8.3,27.9,8.6,28z"/><path fill="#eb7900" d="M27.8,16.2c1.5-0.6,1.6-4,0.2-7.6c-0.1-0.3-0.2-0.5-0.3-0.8c-1.7,0.8-3.5,1.7-5.3,2.9c0,0,0,0,0,0 C23.9,14.4,26.3,16.8,27.8,16.2z"/></svg>