<svg xmlns="http://www.w3.org/2000/svg"  viewBox="0 0 48 48" width="500px" height="500px"><circle cx="21" cy="20" r="7" fill="#3dd9eb"/><circle cx="11.5" cy="21.5" r="5.5" fill="#3dd9eb"/><circle cx="12" cy="11" r="3" fill="#3dd9eb"/><path fill="#00b3d7" d="M17,21.5c0-1.853-0.92-3.489-2.324-4.485C14.247,17.921,14,18.931,14,20 c0,1.854,0.726,3.534,1.902,4.787C16.589,23.869,17,22.734,17,21.5z"/><rect width="22" height="20" x="6" y="23" fill="#6c19ff"/><rect width="26" height="5" x="4" y="20" fill="#6c19ff"/><rect width="22" height="2" x="6" y="23" fill="#2100c4"/><rect width="19.799" height="3" x="-.399" y="28" fill="#2100c4" transform="rotate(-45.001 9.5 29.5)"/><polygon fill="#f5bc00" points="44,43 25,43 25.92,31 26,30 43,30"/><rect width="3" height="26.321" x="33" y="3" fill="#3dd9eb"/><rect width="19" height="3" x="25" y="28" fill="#3dd9eb"/><rect width="3" height="3" x="33" y="28" fill="#00b3d7"/><rect width="3" height="3" x="25" y="28" fill="#00b3d7"/><polygon fill="#eb7900" points="28,31 28,43 25,43 25.92,31"/></svg>