<svg xmlns="http://www.w3.org/2000/svg"  viewBox="0 0 48 48" width="500px" height="500px"><path fill="#f5bc00" d="M32.39,27.39L31,29c-1.35-1.35-3.55-1.25-4.78,0.2l-1.29,1.51c-1.09,1.3-1.01,3.21,0.19,4.41L26,36	c0,0-1.4,3.6-3.4,5.6c-3.19,3.2-8.37,3.2-11.57,0.01c-0.35-0.36-4.28-4.29-4.64-4.64C3.2,33.77,3.2,28.59,6.4,25.4	c2-2,5.6-3.4,5.6-3.4l0.88,0.88c1.2,1.2,3.11,1.28,4.41,0.19l1.51-1.29c1.45-1.23,1.55-3.43,0.2-4.78l1.61-1.39	c2.15-2.15,5.63-2.15,7.78,0c0.18,0.18,0.38,0.38,0.58,0.59c0.44,0.43,2.4,2.39,2.83,2.83c0.21,0.2,0.41,0.4,0.59,0.58	C34.54,21.76,34.54,25.24,32.39,27.39z"/><rect width="22.578" height="4.001" x="21.229" y="13.482" fill="#6c19ff" transform="rotate(-45.001 32.518 15.483)"/><rect width="4.905" height="4" x="36.313" y="7.234" fill="#a64aff" transform="rotate(-45.001 38.766 9.235)"/><path fill="#2100c4" d="M31.8,19.03l-5.85,5.85l-2.83-2.83l5.85-5.85C29.41,16.63,31.37,18.59,31.8,19.03z"/><polygon fill="#a64aff" points="38,8 40,10 43,9 44,5 43,4 39,5"/><polygon fill="#6c19ff" points="15,36 9.82,40.39 7.61,38.18 12,33"/><circle cx="19" cy="25" r="1" fill="#6c19ff"/><rect width="6.084" height="1" x="13.454" y="26.297" fill="#6c19ff" transform="rotate(-45.001 16.495 26.798)"/><circle cx="13.991" cy="28.595" r="1" fill="#6c19ff"/><rect width="6.084" height="1" x="18.161" y="31.004" fill="#6c19ff" transform="rotate(-45.001 21.202 31.505)"/><circle cx="19.405" cy="34.009" r="1" fill="#6c19ff"/><circle cx="23" cy="29" r="1" fill="#6c19ff"/></svg>