<svg xmlns="http://www.w3.org/2000/svg"  viewBox="0 0 48 48" width="500px" height="500px"><circle cx="24" cy="19" r="15" fill="#3dd9eb"/><polygon fill="#f5bc00" points="15,31 33,31 36,38 24,40 12,38"/><rect width="28" height="5" x="10" y="38" fill="#f5bc00"/><path fill="#eb7900" d="M24,34c3.369,0,6.469-1.124,8.973-3H15.027C17.531,32.876,20.631,34,24,34z"/><rect width="24" height="2" x="12" y="38" fill="#eb7900"/><circle cx="24" cy="19" r="4" fill="#7debf5"/><path fill="#7debf5" d="M24,10c0,0,7,1.5,7,8c0,1.657-1.343,3-3,3s-3-1.343-3-3l-5,1c0,2.96,2.504,5.414,5.793,5.905	C26.174,24.963,26.573,25,27,25c3.314,0,6-2.686,6-6C33,16,31,11,24,10z"/><path fill="#7debf5" d="M24,28c0,0-7-1.5-7-8c0-1.657,1.343-3,3-3s3,1.343,3,3l5-1c0-2.96-2.504-5.414-5.793-5.905	C21.826,13.037,21.427,13,21,13c-3.314,0-6,2.686-6,6C15,22,17,27,24,28z"/><path fill="#3dd9eb" d="M12.499,3l1.626,4.876L19,9.5l-4.874,1.626L12.501,16l-1.627-4.873L6,9.503l4.874-1.626L12.499,3z"/><path fill="#00b3d7" d="M11.007,11.526L12.501,16l1.625-4.874L19,9.5l-4.875-1.624l-0.038-0.113	C12.868,8.84,11.825,10.108,11.007,11.526z"/><polygon fill="#3dd9eb" points="37,22 38.277,24.723 41,26 38.277,27.277 37,30 35.723,27.277 33,26 35.723,24.723"/><path fill="#00b3d7" d="M37,22l-1.277,2.723L33,26l2.723,1.277l0.307,0.655c0.837-1.125,1.517-2.369,2.015-3.705L37,22z"/></svg>