<svg xmlns="http://www.w3.org/2000/svg"  viewBox="0 0 48 48" width="500px" height="500px"><path fill="#eb0000" d="M20,16h10c4,9,4,9,9,21H25.556L20,16z"/><polygon fill="#3dd9eb" points="29,22 27.757,17.576 33,14.034 33,6 37,6 37,15.966"/><rect width="4" height="3" x="33" y="3" fill="#7debf5"/><polygon fill="#3dd9eb" points="20,20 16,23 16,31 12,31 12,21 18,16"/><path fill="#7debf5" d="M29,9c0,2.762-2.238,5-5,5s-5-2.238-5-5s2.238-5,5-5S29,6.238,29,9z"/><path fill="#3dd9eb" d="M19,30l5,2l-2,12h-6L19,30z"/><path fill="#3dd9eb" d="M29,30l-5,2l2,12h6L29,30z"/><polygon fill="#f55376" points="30,16 30,21 29,27 19,27 18,21 18,16"/><polygon fill="#00b3d7" points="29,27 29,30 24,32 19,30 19,27"/><polygon fill="#f5bc00" points="27,19.677 24,22 21,19.677 22.5,18 25.5,18"/><rect width="4" height="3" x="12" y="28" fill="#7debf5"/></svg>