<svg xmlns="http://www.w3.org/2000/svg"  viewBox="0 0 48 48" width="500px" height="500px"><polygon fill="#2100c4" points="23,43 27,43 26,36 23,36"/><path fill="#ddbaff" d="M19,8.5c0,3.056,2.444,5.5,5.5,5.5S30,11.556,30,8.5S27.433,3,24.5,3C21.444,3,19,5.444,19,8.5z"/><polygon fill="#6c19ff" points="21,43 10.962,39.686 11,32 22.845,30.669 26.414,30.701 38,32 38.038,39.625 28,43 25.725,36.679 23,36.673"/><rect width="13" height="17" x="18" y="15" fill="#2100c4"/><polygon fill="#6c19ff" points="36,19.01 36,25 26,29 26,24 30.99,21.243 30.99,15"/><polygon fill="#6c19ff" points="19,15.05 19,15.05 19.09,15"/><polygon fill="#6c19ff" points="23,24 23,29 13,25 13,19.05 18,15.05 18,21.211"/><polygon fill="#2100c4" points="26,31 24,31 19,31 15.011,31.549 21,39 28,39 34.009,31.553 30,31"/><polygon fill="#f5bc00" points="23,29 26,29 26,24 24.51,22 23,24"/><g><rect width="7" height="4" x="21" y="39" fill="#f5bc00"/></g></svg>