<svg xmlns="http://www.w3.org/2000/svg"  viewBox="0 0 48 48" width="500px" height="500px"><path fill="#6c19ff" d="M47.988,40H23.481l1.047-5.009c0.511-3.45,3.3-5.991,6.577-5.991h9.259 c3.276,0,6.066,2.541,6.577,5.991L47.988,40z"/><path fill="#3dd9eb" d="M30.963,40H0.037l1.322-5.92C2.004,30.003,5.524,27,9.658,27h11.684c4.134,0,7.654,3.003,8.299,7.08 L30.963,40z"/><path fill="#00b3d7" d="M27.75,29.968c-1.677,1.045-2.9,2.853-3.222,5.022L23.481,40h7.482l-1.322-5.92 C29.393,32.513,28.718,31.108,27.75,29.968z"/><path fill="#7debf5" d="M23.28,21.337H7.581c-1.104,0-2-0.896-2-2s0.896-2,2-2H23.28c1.104,0,2,0.896,2,2 S24.385,21.337,23.28,21.337z"/><path fill="#7debf5" d="M15.431,28.304L15.431,28.304c-4.171,0-7.683-3.116-8.18-7.257l-0.404-3.37 C6.229,12.53,10.247,8,15.431,8h0c5.184,0,9.202,4.53,8.585,9.676l-0.404,3.37C23.114,25.187,19.601,28.304,15.431,28.304z"/><path fill="#6c19ff" d="M41.505,26H29.964c-1.104,0-2-0.896-2-2s0.896-2,2-2h11.541c1.104,0,2,0.896,2,2 S42.609,26,41.505,26z"/><path fill="#6c19ff" d="M41.505,26H29.964c-1.104,0-2-0.896-2-2s0.896-2,2-2h11.541c1.104,0,2,0.896,2,2 S42.609,26,41.505,26z"/><path fill="#6c19ff" d="M41.937,26H29.531c-1.104,0-2-0.896-2-2s0.896-2,2-2h12.406c1.105,0,2,0.896,2,2 S43.042,26,41.937,26z"/><path fill="#6c19ff" d="M35.734,30.987L35.734,30.987c-3.315,0-6.107-2.477-6.502-5.769l-0.321-2.679 c-0.491-4.091,2.703-7.691,6.824-7.691h0c4.12,0,7.315,3.601,6.824,7.691l-0.321,2.679C41.842,28.509,39.05,30.987,35.734,30.987z"/></svg>