<svg xmlns="http://www.w3.org/2000/svg"  viewBox="0 0 48 48" width="500px" height="500px"><path fill="#3ddab4" d="M35,17c0-4.418-3.582-8-8-8c-0.524,0-1.036,0.054-1.532,0.15C24.319,6.141,21.413,4,18,4	s-6.319,2.141-7.468,5.15C10.036,9.054,9.524,9,9,9c-4.418,0-8,3.582-8,8c0,2.344,1.014,4.446,2.62,5.909C3.221,23.86,3,24.904,3,26	c0,4.418,3.582,8,8,8c3.014,0,5.636-1.668,7-4.13c1.364,2.462,3.986,4.13,7,4.13c4.418,0,8-3.582,8-8c0-1.096-0.221-2.14-0.62-3.091	C33.986,21.446,35,19.344,35,17z"/><polygon fill="#f5bc00" points="18,12 12,44 24,44"/><path fill="#00b569" d="M18,12l-4.015,21.412c1.709-0.69,3.129-1.944,4.015-3.542c0.885,1.598,2.306,2.852,4.015,3.542L18,12	z"/><rect width="8" height="10" x="29" y="34" fill="#f5bc00"/><polygon fill="#7decd6" points="33,4 23,19 43,19"/><polygon fill="#7decd6" points="33,11 20,28 46,28"/><polygon fill="#7decd6" points="33,18 19,37 47,37"/><rect width="8" height="3" x="29" y="34" fill="#3ddab4"/></svg>