<svg xmlns="http://www.w3.org/2000/svg"  viewBox="0 0 48 48" width="500px" height="500px"><rect width="4" height="3" x="11" y="41" fill="#6c19ff"/><rect width="4" height="3" x="33" y="41" fill="#6c19ff"/><path fill="#6c19ff" d="M19.5,9.5c-3.038,0-5.5,2.462-5.5,5.5h11C25,11.962,22.538,9.5,19.5,9.5z"/><path fill="#6c19ff" d="M11,25.5H8V8c0-2.757,2.243-5,5-5h3c2.757,0,5,2.243,5,5v3h-3V8c0-1.103-0.897-2-2-2h-3	c-1.103,0-2,0.897-2,2V25.5z"/><path fill="#3dd9eb" d="M37,41H11c-3.314,0-6-2.686-6-6V24h38v11C43,38.314,40.314,41,37,41z"/><rect width="3" height="3" x="8" y="24" fill="#00b3d7"/><rect width="4" height="3" x="11" y="38" fill="#00b3d7"/><rect width="4" height="3" x="33" y="38" fill="#00b3d7"/></svg>