<svg xmlns="http://www.w3.org/2000/svg"  viewBox="0 0 48 48" width="500px" height="500px"><path fill="#6c19ff" d="M39,29h-4v-9c0-6.065-4.935-11-11-11s-11,4.935-11,11v9H9v-9c0-8.271,6.729-15,15-15s15,6.729,15,15	V29z"/><path fill="#3dd9eb" d="M13,27v16H9l-1.009-0.001c-3.31-0.005-5.991-2.69-5.991-6V33c0-3.314,2.686-6,6-6H13z"/><path fill="#00b3d7" d="M13,27v16H9V27H13z"/><path fill="#3dd9eb" d="M35,27v16h4l1.009-0.001c3.31-0.005,5.991-2.69,5.991-6V33c0-3.314-2.686-6-6-6H35z"/><path fill="#00b3d7" d="M35,27v16h4V27H35z"/></svg>