<svg xmlns="http://www.w3.org/2000/svg"  viewBox="0 0 48 48" width="500px" height="500px"><path fill="#ddbaff" d="M10,8c0,2.244,1.756,4,4,4s4-1.756,4-4s-1.756-4-4-4C11.756,4,10,5.756,10,8z"/><path fill="#ddbaff" d="M33,10c0,2.244,1.756,4,4,4c2.244,0,4-1.756,4-4s-1.756-4-4-4C34.756,6,33,7.756,33,10z"/><rect width="8" height="13" x="9" y="14" fill="#6c19ff"/><polygon fill="#6c19ff" points="17,14 29,9 30,13 17,19"/><polygon fill="#6c19ff" points="9,14 4,20 6,24 14,20 12,17 9.011,18.753"/><polygon fill="#2100c4" points="14,20 12,16 9.011,17.753 9,22.5"/><polygon fill="#6c19ff" points="17,26 20,35 21,45 16,45 15,35 14,33 13,37 9,45 4,45 9,35 9,27"/><polygon fill="#6c19ff" points="32,15 40,17 37,28 29,26"/><polygon fill="#6c19ff" points="40,17 43,25 41,28 34,25 35,21 38.444,22.709"/><polygon fill="#2100c4" points="38.443,22.709 35,21 34,25 37.419,26.465"/><polygon fill="#6c19ff" points="32,15 26,19 21,20 21,24 27,23 31,21"/><polygon fill="#6c19ff" points="29,26 25,34 24,45 29,45 30,35 32,32 36,45 41,45 37,28"/></svg>