<svg xmlns="http://www.w3.org/2000/svg"  viewBox="0 0 48 48" width="500px" height="500px"><path fill="#3dd9eb" d="M43,45H5l1.624-6.287C7.416,33.696,11.741,30,16.821,30h14.357c5.08,0,9.405,3.696,10.197,8.713 L43,45z"/><path fill="#00b3d7" d="M20.904,34.356L18,30h12l-2.904,4.356C25.623,36.565,22.377,36.565,20.904,34.356z"/><path fill="#00b3d7" d="M34.5,40.5h-3V34c0-3.584-3.364-6.5-7.5-6.5s-7.5,2.916-7.5,6.5v2.5h-3V34 c0-5.238,4.71-9.5,10.5-9.5s10.5,4.262,10.5,9.5V40.5z"/><path fill="#7debf5" d="M24,32L24,32c-5.135,0-9.46-3.837-10.072-8.936l-0.498-4.15C12.669,12.577,17.617,7,24,7l0,0 c6.383,0,11.331,5.577,10.57,11.915l-0.498,4.15C33.46,28.163,29.135,32,24,32z"/><path fill="#7debf5" d="M34,24H14c-1.104,0-2-0.896-2-2s0.896-2,2-2h20c1.104,0,2,0.896,2,2S35.104,24,34,24z"/><path fill="#00b3d7" d="M13.43,18.914l0.136,1.136c2.349-1.623,3.891-4.33,3.891-7.401c0-1.044-0.187-2.042-0.515-2.974 C14.433,11.901,12.994,15.283,13.43,18.914z"/><path fill="#00b3d7" d="M31.058,9.675c-0.327,0.932-0.515,1.93-0.515,2.974c0,3.072,1.542,5.778,3.891,7.401l0.136-1.135 C35.006,15.283,33.567,11.901,31.058,9.675z"/><polygon fill="#3dd9eb" points="34,14 14,14 16.105,2 31.895,2"/><path fill="#f55376" d="M23,5h2v6h-2V5z"/><path fill="#f55376" d="M21,7h6v2h-6V7z"/><rect width="2" height="2" x="23" y="7" fill="#eb0000"/><path fill="#00b3d7" d="M39,45.5h-3c0-1.493-0.851-3-2.75-3c-1.792,0-3.25,1.346-3.25,3h-3c0-3.309,2.804-6,6.25-6 C36.582,39.5,39,42.023,39,45.5z"/><rect width="3" height="3" x="27" y="45" fill="#7debf5"/><rect width="3" height="3" x="36" y="45" fill="#7debf5"/><g><circle cx="15" cy="38" r="4" fill="#00b3d7"/></g><g><circle cx="15" cy="38" r="2" fill="#7debf5"/></g></svg>