<svg xmlns="http://www.w3.org/2000/svg"  viewBox="0 0 48 48" width="500px" height="500px"><path fill="#00b3d7" d="M44.999,13v-6h-3v6H44.999z"/><polygon fill="#6c19ff" points="18,26 28,26 28,22 20,22 16,17 8,17 8,29 8,35 8,39 0,39 0,45 14,45 14,35 18,35 18,45 24,45 24,29 16,29 16,23.455"/><polygon fill="#f5bc00" points="25,18 25,22 25,26 25,29 28,29 28,26 28,22 28,18"/><path fill="#2100c4" d="M25,22h3v4h-3V22z"/><polygon fill="#6c19ff" points="48,37.375 39.5,37.375 39.5,27.375 43.5,27.375 43.5,33.375 48,33.375"/><path fill="#6c19ff" d="M37,19h-4c0-2.256,0.919-3.616,1.69-4.359c1.746-1.686,4.124-1.656,4.382-1.64L47,13v4h-8 c-0.338,0.025-1.098,0.088-1.545,0.531C37.343,17.643,37,17.982,37,19z"/><path fill="#3dd9eb" d="M48,11h-9v8h9V11z"/><path fill="#3dd9eb" d="M48,6h-9v3h9V6z"/><path fill="#ddbaff" d="M7.5,11.5c0,2.5,2,4.5,4.5,4.5s4.5-2,4.5-4.5S14.398,7,12,7C9.5,7,7.5,9,7.5,11.5z"/><path fill="#f5bc00" d="M31,17L31,17c0,1.657-1.343,3-3,3h-3c-1.657,0-3-1.343-3-3v0H31z"/><path fill="#eb7900" d="M28,17v3h-3v-3H28z"/><path fill="#f5bc00" d="M25,14v6h0c-1.657,0-3-1.343-3-3v-0.001C22,15.343,23.343,14,25,14L25,14z"/><path fill="#f5bc00" d="M31,16.999L31,16.999c0,1.657-1.343,3-3,3h0v-6h0C29.657,14,31,15.343,31,16.999z"/><path fill="#3dd9eb" d="M33,24h15v5.49H33V24z"/><path fill="#00b3d7" d="M39,13h9v4h-9V13z"/><path fill="#2100c4" d="M8,17h8v12H8V17z"/></svg>