<svg xmlns="http://www.w3.org/2000/svg"  viewBox="0 0 48 48" width="500px" height="500px"><polygon fill="#3dd9eb" points="47,32 47,35 44.43,37 38,42 28,42 22,40 16,40 14,42 4,42 1,39 1,35 3,32 5,34 7,34 9,32 13,32 16,35 27.75,35.25 29,33 34,33 35,35"/><path fill="#6c19ff" d="M47,32v3l-23,2L3,35V20h5l2,3h9v-2l-2.5-2.5L20,15l15,12h7C44.76,27,47,29.24,47,32z"/><polygon fill="#00b3d7" points="47,32 47,35 44.43,37 3,37 3,32 5,34 7,34 9,32 13,32 16,35 27.75,35.25 29,33 34,33 35,35"/><rect width="5.52" height="3" x="23.037" y="19.172" fill="#3dd9eb" transform="rotate(-51.888 25.797 20.672)"/><rect width="5.701" height="3" x="27.4" y="22.75" fill="#3dd9eb" transform="rotate(-52.128 30.249 24.25)"/><polygon fill="#00b3d7" points="27.47,20.97 25.27,23.77 22.91,21.92 25.12,19.1"/><polygon fill="#00b3d7" points="31.92,24.54 29.68,27.42 27.32,25.58 29.58,22.67"/></svg>