<svg xmlns="http://www.w3.org/2000/svg"  viewBox="0 0 48 48" width="500px" height="500px"><path fill="#ddbaff" d="M13,8.5c0,2.5,2,4.5,4.5,4.5S22,11,22,8.5S19.9,4,17.5,4C15,4,13,6,13,8.5z"/><polygon fill="#f5bc00" points="35.02,44 31.02,44 31.01,21.71 33.98,20.04 32.03,16.55 31,17.13 31,14 35,14"/><polygon fill="#2100c4" points="33.98,20.04 31.01,21.71 31,17.13 32.03,16.55"/><polygon fill="#6c19ff" points="31.01,21.71 26.96,23.97 19.21,16.86 21.91,13.91 27.53,19.07 31,17.13"/><polygon fill="#6c19ff" points="29,34.05 29,44 23,44 23,37.11 16.38,32.32 19.9,27.46"/><polygon fill="#6c19ff" points="10.377,43.948 16.837,43.948 19.007,38.528 19.007,26.948 13.007,26.948 13.007,37.368"/><rect width="9" height="15" x="13" y="14" fill="#2100c4"/><rect width="10" height="11" x="8" y="16" fill="#00b569"/><g><rect width="6" height="11" x="7" y="16" fill="#3ddab4"/></g></svg>