<svg xmlns="http://www.w3.org/2000/svg"  viewBox="0 0 48 48" width="500px" height="500px"><circle cx="22" cy="25" r="6" fill="#3dd9eb"/><path fill="#6c19ff" d="M34,44h-4c-5.514,0-10-4.486-10-10h6c0,2.206,1.794,4,4,4h4c2.206,0,4-1.794,4-4V4h6v30 C44,39.514,39.514,44,34,44z"/><rect width="9" height="9" x="37" y="13" fill="#3dd9eb"/><rect width="7" height="9" x="37" y="13" fill="#00b3d7"/><path fill="#7debf5" d="M31,9H13c-4.971,0-9,4.029-9,9c0,4.971,4.029,9,9,9s9-4.029,9-9c0,4.971,4.029,9,9,9s9-4.029,9-9 C40,13.029,35.971,9,31,9z"/><path fill="#3dd9eb" d="M31,29c-3.716,0-7.008-1.852-9-4.682C20.008,27.148,16.716,29,13,29C6.935,29,2,24.065,2,18 S6.935,7,13,7h18c6.065,0,11,4.935,11,11S37.065,29,31,29z M20,18h4c0,3.86,3.14,7,7,7s7-3.14,7-7s-3.14-7-7-7H13 c-3.86,0-7,3.14-7,7s3.14,7,7,7S20,21.86,20,18z"/></svg>