<svg xmlns="http://www.w3.org/2000/svg"  viewBox="0 0 48 48" width="500px" height="500px"><path fill="#3dd9eb" d="M38,28H10V8h28c5.5,0,10,4.5,10,10l0,0C48,23.5,43.5,28,38,28z"/><path fill="#3dd9eb" d="M41,40L41,40c3.9,0,7-3.1,7-7V18c0-5.5-4.5-10-10-10l0,0c-7.1,0-11.9,7.3-9.2,13.9l5.8,13.8	C35.7,38.3,38.2,40,41,40z"/><path fill="#00b3d7" d="M48,18c0-5.5-4.5-10-10-10c-7.1,0-11.9,7.3-9.2,13.9l2.6,6.1H38C43.5,28,48,23.5,48,18z"/><path fill="#3dd9eb" d="M7,40L7,40c-3.9,0-7-3.1-7-7V18C0,12.5,4.5,8,10,8l0,0c7.1,0,11.9,7.3,9.2,13.9l-5.8,13.8	C12.3,38.3,9.8,40,7,40z"/><circle cx="38" cy="14" r="2" fill="#2100c4"/><rect width="4" height="10" x="7" y="13" fill="#2100c4"/><rect width="10" height="4" x="4" y="16" fill="#2100c4"/><circle cx="38" cy="22" r="2" fill="#2100c4"/><circle cx="42" cy="18" r="2" fill="#2100c4"/><circle cx="34" cy="18" r="2" fill="#2100c4"/></svg>