<svg xmlns="http://www.w3.org/2000/svg"  viewBox="0 0 48 48" width="500px" height="500px"><polygon fill="#6c19ff" points="17,44 11,44 11,34.5 20.2,27.6 23.8,32.4 17,37.5"/><polygon fill="#6c19ff" points="11.976,21.997 5.993,13.254 9.293,10.996 13.544,17.206 17.072,15.967 18.398,19.74"/><polygon fill="#6c19ff" points="29.985,26.03 23.111,18.797 26.01,16.041 30.43,20.691 35.547,16.844 37.95,20.042"/><path fill="#ddbaff" d="M17,10.5c0,2.5,2,4.5,4.5,4.5s4.5-2,4.5-4.5S23.9,6,21.5,6C19,6,17,8,17,10.5z"/><rect width="9" height="14" x="17" y="16" fill="#2100c4"/><path fill="#f55376" d="M35.95,11c-0.23,1.14-1.24,2-2.45,2c-1.38,0-2.5-1.12-2.5-2.5c0-1.21,0.86-2.22,2-2.45V11H35.95z"/><path fill="#f55376" d="M36,10.5c0,0.17-0.02,0.34-0.05,0.5H33V8.05C33.16,8.02,33.33,8,33.5,8C34.88,8,36,9.12,36,10.5z"/><rect width="4" height="3" x="35" y="2" fill="#f55376"/><polygon fill="#6c19ff" points="30.03,44 23.06,44 20,38.82 20,30 26,30 26,37.18"/><rect width="3" height="6.573" x="33" y="4" fill="#f55376"/><rect width="3" height="3" x="33" y="2" fill="#eb0000"/></svg>