<svg xmlns="http://www.w3.org/2000/svg"  viewBox="0 0 48 48" width="500px" height="500px"><path fill="#3ddab4" d="M44,5H10v23h34V5L44,5z"/><path fill="#f5bc00" d="M46,30v-4H7v4H46z"/><rect width="35" height="2" x="9" y="26" fill="#eb7900"/><circle cx="10" cy="13" r="4" fill="#ddbaff"/><path fill="#6c19ff" d="M5,33H2V22c0-1.657,1.343-3,3-3l0,0V33z"/><rect width="13" height="3" x="12" y="19" fill="#6c19ff"/><rect width="10" height="10" x="5" y="33" fill="#6c19ff"/><rect width="10" height="14" x="5" y="19" fill="#2100c4"/><path fill="#6c19ff" d="M10,9C9.268,9,8.59,9.211,8,9.555V10c0,1.105,0.895,2,2,2s2-0.895,2-2V9.555	C11.41,9.211,10.732,9,10,9z"/><path fill="#6c19ff" d="M42.792,40.723c-0.213-1.498-1.336-2.618-2.685-2.715c0.246-0.301,0.433-0.653,0.542-1.041 c0.427-0.114,0.742-0.503,0.742-0.966c0-0.369-0.2-0.691-0.497-0.864C40.97,33.443,39.616,32,37.891,32 c-1.725,0-3.079,1.443-3.003,3.136c-0.297,0.173-0.497,0.495-0.497,0.864c0,0.463,0.315,0.853,0.742,0.966 c0.108,0.388,0.295,0.741,0.542,1.041c-1.349,0.097-2.472,1.218-2.685,2.715L32.532,43H43.25L42.792,40.723z"/><path fill="#6c19ff" d="M26.107,38.008c0.246-0.301,0.433-0.653,0.542-1.041c0.427-0.114,0.742-0.503,0.742-0.966 c0-0.369-0.2-0.691-0.497-0.864C26.97,33.443,25.616,32,23.891,32c-1.725,0-3.079,1.443-3.003,3.136 c-0.297,0.173-0.497,0.495-0.497,0.864c0,0.463,0.315,0.853,0.742,0.966c0.108,0.388,0.295,0.741,0.542,1.041 c-1.349,0.097-2.472,1.218-2.685,2.715L18.532,43H29.25l-0.458-2.277C28.578,39.225,27.456,38.105,26.107,38.008z"/></svg>