<svg xmlns="http://www.w3.org/2000/svg"  viewBox="0 0 48 48" width="500px" height="500px"><polygon fill="#6c19ff" points="27.243,26.709 24.757,23.576 33,17.034 33,9 37,9 37,18.966"/><polygon fill="#6c19ff" points="20.757,26.709 11,18.966 11,9 15,9 15,17.034 23.243,23.576"/><polygon fill="#6c19ff" points="26.52,35.21 15.87,45 7,45 22.47,30.79"/><polygon fill="#00b3d7" points="32,6 31,6 17,6 16,6 0,6 0,9 16,9 17,9 31,9 32,9 48,9 48,6"/><rect width="4" height="3" x="33" y="6" fill="#2100c4"/><rect width="4" height="3" x="11" y="6" fill="#2100c4"/><path fill="#ddbaff" d="M19.5,15.5c0,2.5,2,4.5,4.5,4.5s4.5-2,4.5-4.5S26.4,11,24,11C21.5,11,19.5,13,19.5,15.5z"/><rect width="8" height="12" x="20" y="21" fill="#2100c4"/><polygon fill="#f5bc00" points="4,6 4,9 7,9 7,13 2,13 2,2 7,2 7,6"/><rect width="5" height="3" x="2" y="6" fill="#eb7900"/><g><polygon fill="#f5bc00" points="46,2 46,13 41,13 41,9 44,9 44,6 41,6 41,2"/><rect width="5" height="3" x="41" y="6" fill="#eb7900"/></g><g><polygon fill="#6c19ff" points="36,45 30,45 30,39 20,39 20,33 36,33"/></g></svg>