<svg xmlns="http://www.w3.org/2000/svg"  viewBox="0 0 48 48" width="500px" height="500px"><rect width="21" height="4" x="2" y="35" fill="#6c19ff"/><path fill="#6c19ff" d="M20.836,35.678H4.29c0-4.569,3.704-8.273,8.273-8.273S20.836,31.109,20.836,35.678z"/><path fill="#2100c4" d="M4.29,37h16.546c0-0.68,0.042-1.344,0-2H4.29C4.248,35.656,4.29,36.32,4.29,37z"/><path fill="#6c19ff" d="M12.5,25c-0.829,0-1.5,0.744-1.5,1.663v1.663h3v-1.663C14,25.744,13.329,25,12.5,25z"/><path fill="#ddbaff" d="M22,19h-3v9h3V19z"/><path fill="#ddbaff" d="M38,19c0,2.211-1.789,4-4,4s-4-1.789-4-4s1.789-4,4-4S38,16.789,38,19z"/><path fill="#6c19ff" d="M37.762,9.048c-0.646,0-1.216,0.299-1.601,0.758C36.019,8.787,35.153,8,34.095,8 s-1.924,0.787-2.066,1.806c-0.384-0.459-0.955-0.758-1.601-0.758c-1.157,0-2.095,0.938-2.095,2.095s0.938,2.095,2.095,2.095V17 h7.333v-3.762c1.157,0,2.095-0.938,2.095-2.095S38.919,9.048,37.762,9.048z"/><path fill="#6c19ff" d="M39,39h3V28c0-1.656-1.344-3-3-3V39z"/><path fill="#6c19ff" d="M32,29v-4H19v4H32z"/><path fill="#f5bc00" d="M2,39h42v4H2V39z"/><path fill="#2100c4" d="M39,25H29v14h10V25z"/><path fill="#6c19ff" d="M37,25h-6v5h6V25z"/><ellipse cx="20.5" cy="18.5" fill="#ddbaff" rx="2.5" ry="3.5"/></svg>