<svg xmlns="http://www.w3.org/2000/svg"  viewBox="0 0 48 48" width="500px" height="500px"><path fill="#eb7900" d="M34.5,29h-5.25l-3.75-5c-0.829-1.104-0.604-2.671,0.5-3.5c1.105-0.829,2.671-0.604,3.5,0.5l2.25,3 h2.75c1.381,0,2.5,1.119,2.5,2.5S35.881,29,34.5,29z"/><path fill="#eb7900" d="M33,31L33,31c2.209,0,4-1.791,4-4v-0.5l-4,0V31z"/><polygon fill="#eb7900" points="4.243,39.172 0,34.929 12.021,23.908 16.263,28.151"/><path fill="#eb7900" d="M0,34.929c1.562-1.562,4.095-1.562,5.657,0s1.562,4.095,0,5.657L0,34.929z"/><circle cx="45.5" cy="9.5" r="2.5" fill="#f55376"/><path fill="#f5bc00" d="M11,29c-4.962,0-9-4.038-9-9v-3h4v3c0,2.757,2.243,5,5,5V29z"/><rect width="6" height="15" x="11" y="29" fill="#f5bc00"/><path fill="#f5bc00" d="M11,44c0-2.209,1.791-4,4-4s4,1.791,4,4H11z"/><path fill="#f5bc00" d="M22.092,12.198l-10.494,7.414C9.318,21.512,8,24.326,8,27.294v2.699 c0,3.019,1.674,5.645,4.142,7.007l2.486-0.002c3.012-0.163,5.18-2.607,5.355-5.65L28,27l4.001-8.191L22.092,12.198z"/><path fill="#fadb00" d="M33.5,32h-6.25l-3.75-5c-0.829-1.104-0.604-2.671,0.5-3.5c1.104-0.829,2.672-0.605,3.5,0.5l2.25,3 h3.75c1.381,0,2.5,1.119,2.5,2.5S34.881,32,33.5,32z"/><path fill="#fadb00" d="M32,34L32,34c2.209,0,4-1.791,4-4v-0.5h-4V34z"/><path fill="#fadb00" d="M36,13h-6V7h10v2C40,11.209,38.209,13,36,13z"/><polygon fill="#fadb00" points="23,1.809 23,12.804 31.801,10.493"/><path fill="#fadb00" d="M31.995,18.805L36,10.5C36,6.91,33.09,4,29.5,4S23,6.91,23,10.5v2.304L31.995,18.805z"/><polygon fill="#eb7900" points="22.954,11.571 20.364,13.419 31.12,20.62 32.44,17.9"/></svg>