<svg xmlns="http://www.w3.org/2000/svg"  viewBox="0 0 48 48" width="500px" height="500px"><path fill="#fa91ad" d="M13,43H9V32h4V43z M21,32h-4v11h4V32z M31,32h-4v11h4V32z M39,32h-4v11h4V32z"/><path fill="#3dd9eb" d="M3,30.5C3,34.09,5.91,37,9.5,37c0.66,0,26.34,0,27,0c3.59,0,6.5-2.91,6.5-6.5	c0-1.502-0.514-2.881-1.37-3.981C43.077,25.327,44,23.521,44,21.5c0-3.59-2.91-6.5-6.5-6.5c-0.523,0-3.029,0.068-3.516,0.185	C33.819,11.742,30.984,9,27.5,9c-2.011,0-3.808,0.914-5,2.348C21.308,9.914,19.511,9,17.5,9c-3.149,0-5.775,2.24-6.372,5.214	C10.607,14.079,10.063,14,9.5,14C5.91,14,3,16.91,3,20.5c0,2.011,0.914,3.808,2.348,5C3.914,26.692,3,28.489,3,30.5z"/><path fill="#fa91ad" d="M43,5l-1.529,14.525C41.203,22.069,39.058,24,36.5,24h0c-2.558,0-4.703-1.931-4.971-4.475L30,5H43z"/><path fill="#f55376" d="M37.5,21h-2c-0.825,0-1.5-0.675-1.5-1.5v0c0-0.825,0.675-1.5,1.5-1.5h2c0.825,0,1.5,0.675,1.5,1.5v0	C39,20.325,38.325,21,37.5,21z"/><circle cx="34" cy="12" r="1" fill="#eb0000"/><circle cx="39" cy="12" r="1" fill="#eb0000"/><path fill="#fa91ad" d="M33,8c0,1.657-1.343,3-3,3s-3-1.343-3-3s1.343-3,3-3S33,6.343,33,8z M43,5c-1.657,0-3,1.343-3,3	s1.343,3,3,3s3-1.343,3-3S44.657,5,43,5z"/><path fill="#f55376" d="M33,8c0-1.657-1.343-3-3-3l0.625,5.933C31.981,10.645,33,9.442,33,8z"/><path fill="#f55376" d="M43,5c-1.657,0-3,1.343-3,3c0,1.442,1.019,2.645,2.375,2.933L43,5z"/></svg>