<svg xmlns="http://www.w3.org/2000/svg"  viewBox="0 0 48 48" width="500px" height="500px"><rect width="4" height="4" x="35" y="36" fill="#f55376"/><rect width="4" height="4" x="9" y="36" fill="#f55376"/><path fill="#3dd9eb" d="M44,37H4V13h40V37z"/><path fill="#3dd9eb" d="M4.5,24L4.5,24C3.119,24,2,25.119,2,26.5V37h5V26.5C7,25.119,5.881,24,4.5,24z"/><path fill="#3dd9eb" d="M43.5,24L43.5,24c-1.381,0-2.5,1.119-2.5,2.5V37h5V26.5C46,25.119,44.881,24,43.5,24z"/><path fill="#f55376" d="M37,27H11c-2.209,0-4,1.791-4,4v0h34v0C41,28.791,39.209,27,37,27z"/><path fill="#00b3d7" d="M43.5,24c-1.381,0-2.5,1.119-2.5,2.5V37h3V24.05C43.838,24.018,43.671,24,43.5,24z"/><path fill="#00b3d7" d="M4.5,24C5.881,24,7,25.119,7,26.5V37H4V24.05C4.162,24.018,4.329,24,4.5,24z"/><rect width="34" height="2" x="7" y="31" fill="#eb0000"/><rect width="4" height="2" x="9" y="35" fill="#00b3d7"/><rect width="4" height="2" x="35" y="35" fill="#00b3d7"/></svg>