<svg xmlns="http://www.w3.org/2000/svg"  viewBox="0 0 48 48" width="500px" height="500px"><path fill="#f55376" d="M29,28c-1.942,0-3.607-1.119-4.435-2.737C24.216,24.581,24,23.819,24,23v-2	c0-0.26-0.027-0.514-0.065-0.763c-0.392-2.553-2.71-4.472-5.426-4.213c-2.6,0.248-4.509,2.58-4.509,5.191V21.5	c0,0.845-0.696,1.497-1.54,1.5C6.166,23.024,1.178,28.584,2.113,35.064c0.669,4.638,4.488,8.329,9.143,8.864	C17.612,44.658,23,39.708,23,33.5c0-0.828,0.672-1.5,1.5-1.5H26c2.209,0,4-1.791,4-4H29z"/><rect width="27.927" height="4" x="15.163" y="15.874" fill="#6c19ff" transform="rotate(-45.001 29.126 17.874)"/><path fill="#6c19ff" d="M44,4c-0.178,0-0.512,0.067-0.512,0.067L37,6l-1,3l2,2h3l2.34-3.12C43.548,7.953,43.768,8,44,8	c1.105,0,2-0.895,2-2C46,4.895,45.105,4,44,4z"/><rect width="3" height="6.718" x="13" y="29.141" fill="#6c19ff" transform="rotate(-45.001 14.5 32.5)"/><path fill="#2100c4" d="M20.667,29.161l3.898-3.898C24.216,24.581,24,23.819,24,23v-2c0-0.26-0.027-0.514-0.065-0.763	l-6.096,6.096L20.667,29.161z"/><rect width="3" height="6.718" x="18" y="24.141" fill="#2100c4" transform="rotate(-45.001 19.5 27.5)"/></svg>