<svg xmlns="http://www.w3.org/2000/svg"  viewBox="0 0 48 48" width="500px" height="500px"><path fill="#6c19ff" d="M26,13.998c0,0.68-0.346,1.342-0.971,1.717l-10,6c-0.947,0.568-2.176,0.261-2.744-0.686 c-0.569-0.946-0.262-2.175,0.686-2.744l10-6c0.947-0.568,2.176-0.261,2.744,0.686C25.909,13.293,26,13.648,26,13.998z"/><path fill="#ddbaff" d="M14,10c0,2.762-2.238,5-5,5s-5-2.238-5-5s2.238-5,5-5S14,7.238,14,10z"/><path fill="#6c19ff" d="M3,33H0V20c0-1.656,1.344-3,3-3V33z"/><path fill="#6c19ff" d="M3,33h12v12H3V33z"/><path fill="#2100c4" d="M3,17h12v16H3V17z"/><path fill="#6c19ff" d="M9,5C8.086,5,7.238,5.266,6.5,5.691V6.25c0,1.383,1.117,2.5,2.5,2.5s2.5-1.117,2.5-2.5V5.691 C10.762,5.266,9.914,5,9,5z"/><path fill="#6c19ff" d="M22,13.998c0,0.68,0.346,1.342,0.971,1.717l10,6c0.947,0.568,2.176,0.261,2.744-0.686 c0.569-0.946,0.262-2.175-0.686-2.744l-10-6c-0.947-0.568-2.176-0.261-2.744,0.686C22.092,13.293,22,13.648,22,13.998z"/><path fill="#ddbaff" d="M34,10c0,2.762,2.238,5,5,5s5-2.238,5-5s-2.238-5-5-5S34,7.238,34,10z"/><path fill="#6c19ff" d="M45,33h3V20c0-1.656-1.344-3-3-3V33z"/><path fill="#6c19ff" d="M45,33H33v12h12V33z"/><path fill="#2100c4" d="M45,17H33v16h12V17z"/><path fill="#6c19ff" d="M39,5c0.914,0,1.762,0.266,2.5,0.691V6.25c0,1.383-1.117,2.5-2.5,2.5s-2.5-1.117-2.5-2.5V5.691 C37.238,5.266,38.086,5,39,5z"/><path fill="#7decd6" d="M20.871,38.548h-2.419v-7.879c0-1.004,1.083-1.818,2.419-1.818l0,0V38.548z"/><circle cx="24.611" cy="23.438" r="3.438" fill="#fac8d5"/><path fill="#7decd6" d="M28.048,38.548h2.5v-7.825c0-1.023-1.119-1.852-2.5-1.852l0,0V38.548z"/><rect width="7.258" height="7.5" x="20.871" y="37.5" fill="#fac8d5"/><rect width="7.258" height="9.677" x="20.871" y="28.871" fill="#3ddab4"/><rect width="7.177" height="2.419" x="20.871" y="36.129" fill="#00b569"/></svg>