<svg xmlns="http://www.w3.org/2000/svg"  viewBox="0 0 48 48" width="500px" height="500px"><polygon fill="#6c19ff" points="24.794,21.867 20.633,17.381 11.984,21.003 10.052,16.391 21.923,11.42 28.46,18.466"/><path fill="#3dd9eb" d="M42,28c2,1.333,4,1.333,6,0v12H0V28c2,1.33,4,1.33,6,0c2,1.33,4,1.33,6,0c2,1.33,4,1.33,6,0 c2,1.33,4,1.33,6,0c2,1.33,4,1.33,6,0c0.56,0.37,1.11,0.63,1.67,0.8c0.72,0.21,1.43,0.25,2.15,0.13c0.73-0.14,1.45-0.45,2.18-0.93 C38,29.33,40,29.33,42,28z"/><path fill="#3dd9eb" d="M18,28l-4.68,4.68C12.88,32.52,12.44,32.29,12,32c-2,1.33-4,1.33-6,0c-2,1.33-4,1.33-6,0v-4 c2,1.33,4,1.33,6,0c2,1.33,4,1.33,6,0C14,29.33,16,29.33,18,28z"/><path fill="#3dd9eb" d="M45.48,28.97l-4.39,2.01L39.06,29c0.98-0.01,1.96-0.35,2.94-1C43.16,28.77,44.32,29.09,45.48,28.97 z"/><path fill="#ddbaff" d="M33,18c0,2.778,2.222,5,5,5s5-2.222,5-5s-2.333-5-5-5C35.222,13,33,15.222,33,18z"/><path fill="#6c19ff" d="M39.06,29c-1.02,0.01-2.04-0.32-3.06-1c-0.73,0.48-1.45,0.79-2.18,0.93 c-0.08,0.01-0.17,0.02-0.25,0.03l2.67-2.72L39.06,29z"/><path fill="#00b3d7" d="M42,32c-0.98,0.65-1.96,0.99-2.94,1c-1.02,0.01-2.04-0.32-3.06-1c-0.21,0.14-0.42,0.26-0.63,0.37 c-0.51,0.27-1.03,0.46-1.55,0.56c-0.08,0.01-0.17,0.02-0.25,0.03c-0.63,0.08-1.26,0.03-1.9-0.16c-0.12-0.04-0.23-0.07-0.35-0.12 C30.88,32.52,30.44,32.29,30,32c-2,1.33-4,1.33-6,0c-2,1.33-4,1.33-6,0c-1.56,1.04-3.12,1.27-4.68,0.68L18,28c2,1.33,4,1.33,6,0 c2,1.33,4,1.33,6,0c0.56,0.37,1.11,0.63,1.67,0.8c0.64,0.19,1.27,0.24,1.9,0.16c0.08-0.01,0.17-0.02,0.25-0.03 c0.73-0.14,1.45-0.45,2.18-0.93c1.02,0.68,2.04,1.01,3.06,1L42,32z"/><g><path fill="#2100c4" d="M37,27l-1,1c-0.73,0.48-1.45,0.79-2.18,0.93c-0.08,0.01-0.17,0.02-0.25,0.03 c-0.63,0.08-1.26,0.03-1.9-0.16c-0.56-0.17-1.11-0.43-1.67-0.8c-2,1.33-4,1.33-6,0c-2,1.33-4,1.33-6,0l10-10L37,27z"/></g></svg>