<svg xmlns="http://www.w3.org/2000/svg"  viewBox="0 0 48 48" width="500px" height="500px"><circle cx="24" cy="24" r="20" fill="#3dd9eb"/><path fill="#6c19ff" d="M44.45,6.285c0.733-0.733,0.733-1.922,0-2.656L44.371,3.55c-0.733-0.733-1.922-0.733-2.656,0 L38.37,6.894l-7.293-3.647l-1.368,1.367l5.47,5.47l-3.417,3.417l-2.812-1.291L28,13.162L34.838,20l0.951-0.951l-1.291-2.812 l3.417-3.417l5.47,5.47l1.367-1.368L41.105,9.63L44.45,6.285z"/><path fill="#00b3d7" d="M35.997,7.997L36,10L26,23v6h6.462l3.237,11.223C40.727,36.59,44,30.677,44,24 C44,17.456,40.857,11.646,35.997,7.997z"/><path fill="#00b3d7" d="M18.68,31l-1.937-3H13l-4.5-5h4.425L19,17v-5h-3.933l-3.592-3.592 C6.931,12.062,4.019,17.661,4,23.94l6,6.036l1.615,9.727c2.224,1.757,4.831,3.051,7.675,3.738L21.607,38L24,36.752L24.013,31 L18.68,31z"/><path fill="#2100c4" d="M43.074,17.98C41.118,11.777,36.223,6.882,30.02,4.926l5.16,5.16l-3.417,3.417l-2.812-1.291 L28,13.162L34.838,20l0.951-0.951l-1.291-2.812l3.417-3.417L43.074,17.98z"/></svg>