<svg xmlns="http://www.w3.org/2000/svg"  viewBox="0 0 48 48" width="500px" height="500px"><rect width="3" height="15" x="21" y="17" fill="#3ddab4"/><rect width="18.875" height="4.875" x="17.375" y="31.125" fill="#6c19ff"/><circle cx="37" cy="31.5" r="4" fill="#6c19ff"/><circle cx="31.75" cy="27.25" r="4.25" fill="#6c19ff"/><circle cx="26.25" cy="25.25" r="4.25" fill="#6c19ff"/><circle cx="20" cy="28.5" r="4.5" fill="#6c19ff"/><circle cx="30.75" cy="28.625" r="4.75" fill="#6c19ff"/><rect width="8" height="19" x="2" y="24" fill="#6c19ff"/><rect width="3" height="15" x="7" y="26" fill="#2100c4"/><path fill="#f5bc00" d="M46.563,29.007l-0.008-0.014c-0.787-1.409-2.567-1.913-3.976-1.126L29.809,35H18v-3h10 c1.657,0,3-1.343,3-3s-1.343-3-3-3H10v15h20c0.004,0,0.008,0,0.012,0c0.573,0.057,1.168-0.055,1.709-0.357l13.715-7.66 C46.845,32.196,47.349,30.416,46.563,29.007z"/><path fill="#3ddab4" d="M34,8c-6.282,0-9.523,2.569-11.201,5.223C21.283,9.367,17.849,5,10.067,5 c0,0-1.797,12.356,10.933,14l0,0c1,0,3,0,3,0C33.436,17.827,34,8,34,8z"/><path fill="#00b569" d="M24,19c-0.011-0.466-0.121-3.031-1.201-5.777C21.269,15.645,21.033,18.319,21,19H24z"/></svg>