<svg xmlns="http://www.w3.org/2000/svg"  viewBox="0 0 48 48" width="500px" height="500px"><rect width="6.6" height="19.827" x="29.48" y="9.604" fill="#eb7900" transform="rotate(-45.001 32.78 19.518)"/><path fill="#f5bc00" d="M38.232,28.51L19.312,9.59C18.344,8.622,4.325,22.642,5.293,23.61l18.919,18.92	c0.968,0.967,2.537,0.967,3.506,0c0.967-0.967,0.968-2.534,0.002-3.502c0.968,0.965,2.535,0.964,3.502-0.003	c0.968-0.968,0.968-2.537,0-3.505l-0.011-0.023l0.017,0.017c0.968,0.968,2.537,0.968,3.505,0c0.958-0.958,0.964-2.502,0.027-3.472	c0.97,0.937,2.514,0.931,3.472-0.027C39.2,31.047,39.2,29.478,38.232,28.51z"/><rect width="23.132" height="7.435" x="-.725" y="11.422" fill="#6c19ff" transform="rotate(-45.001 10.841 15.14)"/><rect width="19.827" height="2.478" x="2.68" y="15.653" fill="#2100c4" transform="rotate(-45.001 12.594 16.892)"/><path fill="#eb7900" d="M13.148,32.14l1.222-1.222c0.968-0.968,2.537-0.968,3.505,0l0,0c0.968,0.968,0.968,2.537,0,3.505 l-1.222,1.222c-0.968,0.968-2.537,0.968-3.505,0l0,0C12.18,34.677,12.18,33.107,13.148,32.14z"/><path fill="#eb7900" d="M20.158,39.149l1.222-1.222c0.968-0.968,2.537-0.968,3.505,0l0,0c0.968,0.968,0.968,2.537,0,3.505 l-1.222,1.222c-0.968,0.968-2.537,0.968-3.505,0l0,0C19.19,41.687,19.19,40.117,20.158,39.149z"/><path fill="#eb7900" d="M16.659,35.65l1.222-1.222c0.968-0.968,2.537-0.968,3.505,0l0,0c0.968,0.968,0.968,2.537,0,3.505 l-1.222,1.222c-0.968,0.968-2.537,0.968-3.505,0l0,0C15.691,38.187,15.691,36.618,16.659,35.65z"/><path fill="#eb7900" d="M9.643,28.635l1.222-1.222c0.968-0.968,2.537-0.968,3.505,0l0,0c0.968,0.968,0.968,2.537,0,3.505 l-1.222,1.222c-0.968,0.968-2.537,0.968-3.505,0l0,0C8.675,31.172,8.675,29.602,9.643,28.635z"/><rect width="7.435" height="23.132" x="33.441" y="3.573" fill="#3dd9eb" transform="rotate(-45.001 37.158 15.14)"/><rect width="2.478" height="19.827" x="34.167" y="6.978" fill="#00b3d7" transform="rotate(-45.001 35.406 16.892)"/><path fill="#eb7900" d="M16.52,21.758l7.86-7.86c0.968-0.968,2.537-0.968,3.505,0l0,0c0.968,0.968,0.968,2.537,0,3.505 l-7.86,7.86c-0.968,0.968-2.537,0.968-3.505,0l0,0C15.552,24.295,15.552,22.726,16.52,21.758z"/></svg>