<svg xmlns="http://www.w3.org/2000/svg"  viewBox="0 0 48 48" width="500px" height="500px"><rect width="3" height="24.25" x="10" y="20.75" fill="#3dd9eb"/><rect width="3" height="24.25" x="16" y="20.75" fill="#3dd9eb"/><rect width="3" height="24.25" x="22" y="20.75" fill="#3dd9eb"/><rect width="3" height="24.25" x="28" y="20.75" fill="#3dd9eb"/><rect width="3" height="24.25" x="34" y="20.75" fill="#3dd9eb"/><path fill="#6c19ff" d="M23.5,7L23.5,7C14.94,7,8,13.94,8,22.5V23h31v-0.5C39,13.94,32.06,7,23.5,7z"/><rect width="5" height="8" x="21" y="2" fill="#6c19ff"/><path fill="#2100c4" d="M26,7.22C25.184,7.087,24.353,7,23.5,7h0c-0.853,0-1.684,0.087-2.5,0.22V10h5V7.22z"/><rect width="3" height="3" x="10" y="20" fill="#2100c4"/><rect width="3" height="3" x="16" y="20" fill="#2100c4"/><rect width="3" height="3" x="22" y="20" fill="#2100c4"/><rect width="3" height="3" x="28" y="20" fill="#2100c4"/><rect width="3" height="3" x="34" y="20" fill="#2100c4"/></svg>