<svg xmlns="http://www.w3.org/2000/svg"  viewBox="0 0 48 48" width="500px" height="500px"><rect width="27.586" height="3.001" x="18.707" y="19.5" fill="#7debf5" transform="rotate(-46.479 32.5 21)"/><rect width="27.586" height="3.001" x="12.707" y="14.5" fill="#7debf5" transform="rotate(-46.479 26.5 16)"/><rect width="3" height="20.69" x="26" y="11.78" fill="#7debf5" transform="rotate(-46.471 27.5 22.125)"/><rect width="3" height="20.508" x="32.066" y="4.809" fill="#7debf5" transform="rotate(-46.467 33.566 15.062)"/><path fill="#f5bc00" d="M21.49,8.73c-3.01,3.01-4.98,6.72-5.57,10.48C14.12,17.77,13,15.54,13,13c0-4.49,3.51-8,8-8 c1.42,0,2.74,0.35,3.88,0.97C23.68,6.75,22.54,7.68,21.49,8.73z"/><path fill="#f5bc00" d="M29,13c0,4.49-3.51,8-8,8c-0.42,0-0.84-0.03-1.24-0.09c0.02-0.32,0.05-0.65,0.1-0.99 c0.44-2.96,2.02-5.92,4.46-8.36c1.09-1.09,2.29-2.01,3.54-2.73C28.59,10.04,29,11.46,29,13z"/><rect width="7.071" height="3.988" x="13.701" y="29.528" fill="#a64aff" transform="rotate(-45.001 17.236 31.522)"/><rect width="14.142" height="3.988" x="2.666" y="37.028" fill="#2100c4" transform="rotate(-45.001 9.736 39.022)"/><polygon fill="#6c19ff" points="13.327,32.612 3.327,42.612 2.267,41.542 12.267,31.542"/><polygon fill="#6c19ff" points="17.207,36.502 7.207,46.502 6.147,45.432 16.147,35.432"/><g><path fill="#6c19ff" d="M42.17,6.07c-2.49-2.48-6.07-3.52-10.09-2.93c-2.48,0.37-4.94,1.35-7.2,2.83 c1.24,0.67,2.27,1.66,2.98,2.86c1.55-0.9,3.18-1.49,4.81-1.73c0.54-0.08,1.06-0.12,1.57-0.12c2.06,0,3.84,0.66,5.1,1.92 c1.57,1.57,2.21,3.94,1.8,6.67c-0.44,2.95-2.02,5.91-4.46,8.35s-5.4,4.02-8.35,4.46c-2.74,0.41-5.1-0.23-6.67-1.8 c-1.38-1.38-2.04-3.37-1.9-5.67c-1.46-0.22-2.77-0.82-3.84-1.7c-0.01,0.04-0.01,0.08-0.02,0.12c-0.6,4.01,0.44,7.59,2.93,10.08 c2.03,2.03,4.79,3.09,7.91,3.09c0.71,0,1.43-0.05,2.18-0.16c3.79-0.57,7.55-2.55,10.59-5.59c3.04-3.04,5.02-6.8,5.59-10.59 C45.7,12.14,44.66,8.56,42.17,6.07z"/><path fill="#eb7900" d="M27.86,8.83c-1.25,0.72-2.45,1.64-3.54,2.73c-2.44,2.44-4.02,5.4-4.46,8.36 c-0.05,0.34-0.08,0.67-0.1,0.99c-1.46-0.22-2.77-0.82-3.84-1.7c0.59-3.76,2.56-7.47,5.57-10.48c1.05-1.05,2.19-1.98,3.39-2.76 C26.12,6.64,27.15,7.63,27.86,8.83z"/></g></svg>