<svg xmlns="http://www.w3.org/2000/svg"  viewBox="0 0 48 48" width="500px" height="500px"><path fill="#3ddab4" d="M26,26v-7.1c2.9-0.4,5.5-1.5,7.5-3.5c2.8-2.9,3.9-6.9,3.4-11.2c-4.3-0.4-8.4,0.7-11.2,3.6	c-0.2,0.2-0.4,0.5-0.6,0.7c-0.6-1.6-1.5-3.1-2.8-4.3c-3.1-3.1-7.5-4.4-12.2-3.9c-0.6,4.7,0.6,9.1,3.7,12.3c2.2,2.2,5,3.5,8.2,3.9V26	c0,5-4,9-9,9v4c4.6,0,8.6-2.4,10.9-6h0.1c2.3,3.6,6.3,6,10.9,6v-4C30,35,26,31,26,26z"/><path fill="#f5bc00" d="M3,23v20h42V23H3z"/><path fill="#eb7900" d="M22,23v3c0,5-4,9-9,9v4c4.6,0,8.6-2.4,10.9-6h0.1c2.3,3.6,6.3,6,10.9,6v-4c-5,0-9-4-9-9v-3H22z"/></svg>